<?xml version="1.0" encoding="utf-8"?>
<!-- Generator: Adobe Illustrator 19.1.1, SVG Export Plug-In . SVG Version: 6.00 Build 0)  -->
<svg xmlns:inkscape="http://www.inkscape.org/namespaces/inkscape"
	 xmlns="http://www.w3.org/2000/svg" xmlns:xlink="http://www.w3.org/1999/xlink" width="1462" height="660" viewBox="734 -314 1462.5 660.9"
	 style="enable-background:new 734 -314 1462.5 660.9;">
<style type="text/css">
	.st0{fill:none;stroke:#DFECF7;stroke-linejoin:round; stroke-opacity: 0.5;}
	.st1{fill:none;stroke:#DFECF7;stroke-width:2;stroke-linejoin:round; stroke-opacity: 0.5;}
</style>
<g id="MapBackground" inkscape:label="MapBackground" inkscape:groupmode="layer">
	<g id="map_background_1_" inkscape:label="map background" inkscape:groupmode="layer">
		<polygon id="map_background" points="726,-316.1 726,-316.1 726,-316.1 		"/>
	</g>
</g>
<g id="Infrastructure" inkscape:label="Infrastructure" inkscape:groupmode="layer">
	<g id="contours_minor__x28_contours_x29_" inkscape:label="contours minor (contours)" inkscape:groupmode="layer">
		<path class="st0" d="M2070,306.9l10,14.2v14.2l2,14.2"/>
		<path class="st0" d="M1854,306.9l-4,14.2l-1,4.1l-10,10.1v14.2"/>
		<path class="st0" d="M1835,306.9l-5,11.2h-10l-10,1l-9,2l1,14.2l8,7.1l7,7.1"/>
		<path class="st0" d="M1778,306.9l-3,14.2l4,14.2l3,3l9,10.1l2,1"/>
		<path class="st0" d="M1765,306.9l-3,5.1l-4,9.1l4,14.2v4.1l5,10.1"/>
		<path class="st0" d="M1738,306.9l-4,9.1l-5,5.1l-5,4.1l-10-1l-9,3l-2,8.1v14.2"/>
		<path class="st0" d="M1695,306.9l-3,14.2l3,14.2v14.2"/>
		<path class="st0" d="M1682,306.9l-2,14.2l2,14.2l-6,11.2l-10-1l-6,4.1"/>
		<path class="st0" d="M1669,306.9l-1,14.2l-2,4.1l-7,10.1l-2,2l-10,5.1l-7,7.1"/>
		<path class="st0" d="M1648,306.9l-1,3l-5,11.2l-5,5.1l-8,9.1l-1,2l-10,12.2l0,0"/>
		<path class="st0" d="M1427,349.5l-11-1h-9h-10l-5,1"/>
		<path class="st0" d="M1640,306.9l-3,4.1l-4,10.1l-5,7.1l-9,7.1l-10,10.1l-10,3l-6,1"/>
		<path class="st0" d="M1443,349.5l-7-3l-10-5.1l-10-1l-9,1l-10-3l-6-3l-3-1l-10-1l-4,2l4,6.1l3,8.1"/>
		<path class="st0" d="M1507,349.5l-4-2l-10,2l0,0"/>
		<path class="st0" d="M1633,306.9l-5,11.2l-2,3l-8,8.1l-7,6.1l-2,3l-10,2l-10-4.1l-9,13.2l0,0"/>
		<path class="st0" d="M1453,349.5l-8-9.1l-9-2l-5-3l-5-3h-10l-9,2l-10-3l-9-4.1l-10-3l-10,5.1l-8,6.1l8,8.1l4,6.1"/>
		<path class="st0" d="M1626,306.9l-7,14.2l-10,9.1h-10l-10-8.1h-9l-9,13.2l-1,2l-9,7.1l-10,4.1l-10,1l-9-7.1l-10-1l-10-1l-9-2
			l-10-3l-6,14.2"/>
		<path class="st0" d="M1359,306.9l-10,5.1l-10,6.1l-2,3l2,12.2l1,2l9,13.2l1,1"/>
		<path class="st0" d="M1551,306.9l-10,3l-9,3l-10,8.1l-10-1l-9-1l-10-4.1l-9-1l-9,7.1v14.2l-1,4.1l-10-1l-1-3l-8-6.1l-10-4.1l-9-2
			l-4-2l-6-3l-10,2l-6,1l-3,1l-6-1h-4l-9-5.1l-10-5.1l-6-4.1"/>
		<path class="st0" d="M1332,306.9l-2,4.1l-3,10.1l3,9.1l2,5.1l5,14.2"/>
		<path class="st0" d="M1478,306.9l-4,2l-8,12.2l-2,2l-9-2l-10-2l-9-2l-10-5.1l-10,1l-9,4.1l-10-1l-9-5.1l-7-4.1"/>
		<path class="st0" d="M1512,306.9l-9,1l-2-1"/>
		<path class="st0" d="M1314,306.9l3,14.2l3,9.1l2,5.1l4,14.2"/>
		<path class="st0" d="M1416,306.9l-9,5.1l-10-1l-7-4.1"/>
		<path class="st0" d="M1462,306.9l-7,5.1h-10l-9-2l-8-3"/>
		<path class="st0" d="M1301,306.9l8,14.2l2,11.2v3l2,14.2"/>
		<path class="st0" d="M1281,306.9l1,2l6,12.2l3,8.1l3,6.1l2,14.2"/>
		<path class="st0" d="M1273,306.9l4,14.2l5,14.2l5,14.2"/>
		<path class="st0" d="M1264,306.9l3,14.2l3,14.2l2,6.1l4,8.1"/>
		<path class="st0" d="M1252,306.9l1,2l4,12.2l-1,14.2l6,14.2"/>
		<path class="st0" d="M1227,306.9l7,14.2l2,14.2l1,14.2"/>
		<path class="st0" d="M1213,306.9l1,14.2l5,14.2l5,12.2l1,2"/>
		<path class="st0" d="M1205,306.9v4.1l-1,10.1l1,14.2l-2,14.2"/>
		<path class="st0" d="M1194,306.9v14.2l-5,14.2l-3,14.2l0,0"/>
		<path class="st0" d="M1038,349.5l-6-5.1l-10-4.1l-9,1l-8,8.1"/>
		<path class="st0" d="M1176,306.9l-4,14.2l-4,14.2l3,14.2"/>
		<path class="st0" d="M1049,349.5l-8-6.1l-9-8.1l-10-1l-9,1l-10,6.1l-6,8.1"/>
		<path class="st0" d="M1170,306.9l-4,10.1l-2,4.1l-3,14.2l2,14.2"/>
		<path class="st0" d="M1111,349.5l-2-1l-10-2l-9,1l-10,2h-10l-9-2l-10-5.1l-9-7.1l-10-7.1l-10-1l-9,2l-10,3l-10,2l-4,1l-1,14.2"/>
		<path class="st0" d="M1162,306.9l-5,10.1l-2,4.1l-1,14.2l-3,14.2"/>
		<path class="st0" d="M1126,349.5l-8-3l-9-5.1l-10-1h-9l-10,1h-10l-9-3l-6-3l-4-2l-10-8.1l-8-4.1h-11l-9,3l-10,2l-10-1l-8-4.1
			l-11-2l-3,2l3,14.2l5,14.2"/>
		<path class="st0" d="M1151,306.9l-4,10.1l-1,4.1l-2,14.2l-6,12.2l-6,2"/>
		<path class="st0" d="M962,306.9l-7,11.2l-2,3l-4,14.2l-4,14.2l0,0"/>
		<path class="st0" d="M1043,306.9l-2,1l-9,2l-10-1l-9,3l-10,1l-10-2l-6-4.1"/>
		<path class="st0" d="M1126,306.9l-8,6.1l-9,8.1l-10,2l-9,1h-10l-10-1l-3-2l-6-10.1l-5-4.1"/>
		<path class="st0" d="M951,306.9l-5,14.2l-1,3l-4,11.2l-5,14.2"/>
		<path class="st0" d="M1102,306.9l-3,2l-9,4.1l-10-1l-8-5.1"/>
		<path class="st0" d="M939,306.9l-1,14.2l-2,6.1l-4,8.1l-5,14.2"/>
		<path class="st0" d="M929,306.9l-2,14.2l-6,14.2l-4,14.2"/>
		<path class="st0" d="M734,322.1l9-9.1l6-6.1"/>
		<path class="st0" d="M905,306.9v14.2l-3,14.2l-5,9.1l-2,5.1"/>
		<path class="st0" d="M734,332.3l9-9.1l4-2l6-5.1l8-9.1"/>
		<path class="st0" d="M888,306.9l3,14.2l-3,14.2l-4,14.2"/>
		<path class="st0" d="M734,342.4l8-7.1l11-7.1l10-6.1l9-8.1l10-4.1l10-1l9-1l2-1"/>
		<path class="st0" d="M864,306.9l4,6.1l4,8.1v14.2l-2,14.2"/>
		<path class="st0" d="M740,349.5l3-2l10-6.1l9-6.1l10-7.1l10-4.1l8-3l11-1l10-3l9-1l10,2l10,3h9l10,14.2l-2,14.2"/>
		<path class="st0" d="M782,349.5l10-3l7,3"/>
		<path class="st0" d="M1772-287.1L1772-287.1"/>
		<path class="st0" d="M2046-315.5l-5,7.1l-3,7.1l3,2l10,12.2l9,8.1l5,5.1l5,14.2l4,14.2l-4,6.1l-4,8.1l-6,14.2l-9,11.2l-10,1
			l-9-5.1l-5,7.1l5,10.1l3,4.1l-3,4.1l-10,1l-10-5.1l-9-14.2l9-9.1l10,4.1l6-9.1l-6-6.1l-6-8.1l-4-4.1l-9-7.1l-5-3l-5-2l-8-12.2
			l-11-5.1l-10-5.1l-9-4.1l-10,5.1h-10l-9-5.1l-10-4.1l-9-9.1v-14.2h-10l-10-5.1l-9-5.1l-7,10.1l7,9.1l5,5.1l4,6.1l5,7.1l-5,14.2
			l-9-7.1h-10h-9l-10,3l-10,4.1l-4-14.2l-5-3l-10,3l-10,14.2l10,7.1l5,7.1l5,7.1l9,7.1l10,3l10,2l4-5.1l5-4.1l10,4.1l5,14.2l1,14.2
			l3,7.1l5,7.1l5,2l8,12.2l2,1h9l10,3l9,7.1l3,3l6,14.2l1,4.1l6,10.1l3,14.2l1,14.2h9l4,14.2v14.2l6,14.2v14.2l6,14.2l4,14.2l9,14.2
			l10,14.2h9l5,14.2l5,7.1l5,7.1l-5,7.1l-5,7.1l-5,7.1l-2,7.1l2,14.2l4,14.2l6,14.2l10,14.2l9,14.2l-9,7.1l-3,7.1l3,7.1l3,7.1
			l-3,7.1l-5,7.1l5,13.2l3,14.2l6,10.1l3,4.1l7,10.1l5,4.1l-5,14.2l9,14.2l10,14.2l10,14.2l-10,14.2l0,0"/>
		<path class="st0" d="M1820-315.5h10l0,0"/>
		<path class="st0" d="M1859-315.5h9l0,0"/>
		<path class="st0" d="M1883-245.6l4-14.2h10l5,14.2l-5,7.1h-10L1883-245.6"/>
		<path class="st0" d="M1897-259.7l10-7.1l9,7.1l-9,7.1L1897-259.7"/>
		<path class="st0" d="M1955-301.3h9H1955L1955-301.3"/>
		<path class="st0" d="M2022,109.2l10-10.1l3,10.1l-3,14.2L2022,109.2"/>
		<path class="st0" d="M2029-315.5l3,4.1l4-4.1"/>
		<path class="st0" d="M2060,250.2l10-7.1l5,7.1l-5,14.2L2060,250.2"/>
		<path class="st0" d="M2173-301.3l3-7.1l9,7.1l-9,3L2173-301.3"/>
		<path class="st0" d="M1529-315.5l3,2l5,12.2l4,14.2l10,13.2l10-2l2,2l7,10.1h10l9,3l2,1l8,6.1l10-3l2-3l7-7.1l10-7.1h9l10-1l3,1
			l7,10.1l2,4.1l7,4.1l4-4.1l6-8.1l10-3l9,2l10,4.1l9,4.1l3,1l7,7.1l7,7.1l3,3l9,10.1l5,15.2l5,8.1l9,5.1l6,1l4,2l10,2l9,1l10,1h9
			h10l10,1l9,3l7,4.1l3,3l10,6.1l8,5.1l11,6.1l9,1l10,3l7,4.1l3,3l9,7.1l7,4.1l3,3l6,11.2l-2,14.2l-2,14.2l-2,9.1l-2,5.1v14.2
			l2,11.2v3l2,14.2v14.2l-2,3l-10,9.1l-6,2l-3,2l-8,12.2l2,14.2l-3,14.2l-1,2l-10,10.1l-2,2v14.2l2,5.1l6,9.1l4,7.1l5,7.1l5,5.1
			l5,9.1l4,4.1l8,10.1l-8,6.1l-9,8.1l9,7.1l7,7.1l-2,14.2l-5,5.1l-9,3l-10,6.1l-10,8.1l-9,2l-3,4.1l-3,13.2l-4,10.1l-1,4.1l-3,14.2
			l4,5.1l5,9.1l1,14.2l-6,14.2l-9,7.1l-10,3l-4,4.1l4,14.2l5,14.2"/>
		<path class="st0" d="M1468-315.5l6,3l10,6.1l4,5.1l5,3l10,3l9,2l10,2l3,4.1l-2,13.2l1,14.2l8,4.1l9,9.1l3,1l7,2l10,2l9,2h10l9,8.1
			l10-1l10,1l9,3l10-1l3-2l6-6.1l10,1l6,5.1l4,4.1l9-2l2-2l8-8.1l10-4.1l9,2l10,8.1l1,2l6,14.2l2,2l10,6.1l10,3l2,3l7,3l10,4.1l9,3
			l10,4.1l10,2l9,1l10-1h9l10,4.1l10,4.1l7,4.1l2,1l10,3l10,2l9,6.1l10,1h9l5,1l5,5.1l8,9.1l2,1l9,6.1l8,7.1l-3,14.2l-2,14.2l-3,7.1
			l-2,7.1l-1,14.2l-1,14.2l-5,14.2l-10,12.2l-2,2l-8,5.1l-3,9.1l-1,14.2l-5,14.2l-10,12.2l-1,2l-4,14.2l4,14.2l1,14.2l-3,14.2l3,9.1
			l2,5.1l3,14.2l-5,2l-9,9.1l-2,3l2,7.1l4,7.1l-1,14.2l-3,14.2l-5,14.2l-2,13.2l-3,6.1l-7,8.1l-3,4.1l-9,10.1l5,14.2v14.2l-5,6.1
			l-9,8.1l-1,4.1l-4,10.1l4,3l10,11.2l5,14.2"/>
		<path class="st0" d="M1440-315.5l5,9.1l10,3l5,2l4,4.1l10,10.1l10,6.1l2,7.1l7,14.2l7,14.2l3,1l9,2l10,2l10,1l9,5.1l8,3l2,1l10,1
			l9,4.1l10,4.1l9,3l10-1h10l9,1l3,1l7,2h9l10,3l10,3l9-1l10-3l10,3l9,5.1l3,2l7,3l9,5.1l10,1l10,1l9,3l3,1l7,2l9,4.1l10,3l10,1l9,3
			l6,1l4,1l9,1l10,6.1l10,4.1l9,2l10,1l10,3l9,3l10,1l9,4.1l2,2l8,10.1l10,4.1l4,14.2l-1,14.2l-3,9.1l-2,5.1l-3,14.2l-5,11.2l-2,3
			l-8,13.2l-9,10.1l-10,4.1v3l4,12.2l-4,9.1l-3,5.1l-6,5.1l-10,2l-3,7.1l3,6.1l2,8.1l1,14.2l5,14.2l-2,14.2l-6,4.1l-10,4.1l-9,5.1v3
			l8,12.2l1,3l6,11.2l-6,11.2v3l-1,14.2l1,14.2l-9,14.2l1,14.2l-1,3l-10,9.1l-4,15.2l-2,14.2l2,14.2v14.2l-6,9.1l-2,5.1l-6,14.2
			l7,14.2l-8,7.1l-10,2l-9,2l-4,3"/>
		<path class="st0" d="M896-315.5l-8,13.2l-2,15.2l2,1l9-1l10-7.1l2-7.1l5-14.2"/>
		<path class="st0" d="M1339-315.5l10,7.1l7-7.1"/>
		<path class="st0" d="M1380-315.5l-2,4.1l-6,10.1l6,7.1l8,7.1h11l10,1l9,10.1l4,2l6,3l10,5.1l9,2l10,2l2,2l7,14.2l10,10.1l10,4.1h9
			l10,1l9,4.1h10l10-1l9,2l10,3l10,3l5,2l4,4.1l10,5.1l9-1l10,1h10l9-1l10,3l9,3l10,6.1l10,3l9-2l10-2l10,2l9,5.1l4,2l6,2l9,2l10,1
			h10l9,2l10,3l8,4.1l1,2l10,2h10l9,3l10,4.1l7,3l2,2l10,5.1l10,6.1l5,1l4,1h10h10l9,3l10,6.1l3,4.1l6,5.1l10,5.1l3,4.1l2,14.2
			l-4,14.2l-1,3l-7,11.2l-3,5.1l-6,9.1l-3,5.1l-10,8.1l-9,7.1l-5,8.1l-5,10.1l-10,3l-7,15.2V9.9l7,8.1l4,6.1l2,14.2l1,14.2l-7,7.1
			l-9,4.1l-10,1l-6,2l-4,14.2l10,12.2l1,2l8,14.2l-4,14.2l-2,14.2l-3,10.1v4.1v7.1l1,7.1l-8,14.2l-3,2l-7,11.2l-1,14.2l-1,3l-3,11.2
			l2,14.2l1,2l3,12.2l-3,7.1l-3,7.1l-6,14.2l-1,2l-9,5.1l-10,5.1l-2,2l-5,14.2"/>
		<path class="st0" d="M742-315.5l11,10.1l10-4.1l2-6.1"/>
		<path class="st0" d="M878-315.5l-6,14.2l-4,10.1l-1,4.1l-7,13.2l-1,2l-10,11.2l-9,9.1l-7,6.1l-3,4.1l-10,10.1v5.1l10,4.1l10-3l9-2
			l9-4.1l10-8.1l10-6.1l10-5.1l7-9.1l2-2l4,2l6,5.1l7,9.1l2,7.1l8,7.1l2,3l3-3l3-14.2l-3-14.2l-3-8.1l-2-6.1l-2-13.2l3-14.2l1-2
			l10-11.2l2-1"/>
		<path class="st0" d="M1091-315.5l-1,3l-10,9.1l-3,2l-2,14.2l-5,11.2l-2,2l2,2l10,9.1l3,3l7,14.2l9-3l7-11.2l3-10.1v-4.1l9-10.1
			l6-3l4-3l10,1l9-5.1l4-7.1l6-8.1l8-6.1"/>
		<path class="st0" d="M1253-315.5l10,1l9,3l7,10.1l-6,14.2l9,12.2l9-5.1l8-7.1l2-3l10-8.1l9,2l3,9.1l7,13.2l7,14.2l2,7.1l10,3l10-2
			l9,1l10,5.1l10,4.1l9,10.1l10,10.1l9,2l7,2l3,1l10,7.1l9,6.1l10,5.1h9l9-5.1l11-3l8,3l11,3l7-3l2-1l10-3l10-1l9,1l10,4.1l10,6.1
			l9,5.1h10l9-2l10,3l4,2l6,3l9,4.1l10,3l9,4.1l10,6.1l10,4.1l9-4.1l10-4.1l10,1l9,2l10,2l9-1h10l10,1l9,1l10,3l4,3l5,3l10,2h10
			l9,6.1l6,3l4,3l9,6.1l8,5.1l2,2l10,3l9,4.1l10-2l10,3l3,4.1l1,14.2l5,9.1l2,5.1l-2,1l-9,9.1l-10-1l-3,5.1l-7,9.1l-2,5.1l-4,14.2
			l-3,4.1l-10,7.1l-5,3l-5,12.2l-9,14.2l-2,2l2,2l9,12.2l8,14.2l-3,14.2l-5,2l-9,2h-10l-9,1l-10,1l-7,8.1l7,7.1l5,7.1l5,7.1l4,7.1
			l5,8.1l4,6.1l6,7.1l6,7.1l-3,14.2l-3,7.1l-6,7.1l-4,14.2l2,14.2l-2,3l-4,11.2l-5,13.2v3l-4,11.2l-6,7.1l-7,7.1l-3,5.1l-8,9.1
			l8,9.1l10,3l3,2l-3,4.1l-5,10.1l-5,4.1l-9,9.1l-2,1l-4,14.2l-4,7.1l-5,7.1"/>
		<path class="st0" d="M734-314.5l9,8.1l5,5.1l5,7.1l10,6.1l6-13.2l3-9.1l7-5.1"/>
		<path class="st0" d="M871-315.5l-3,5.1l-3,9.1l-3,14.2l-3,5.1l-5,8.1l-5,6.1l-9,7.1l-2,1l-8,8.1l-5,6.1l-5,5.1l-8,9.1l-1,4.1
			l-4,10.1l4,12.2l9-5.1l10-2l8-5.1l11-4.1l10-3l9-6.1l3-1l7-3l10-5.1l8-6.1h4l7,5.1l4,9.1l5,13.2l10,8.1l6-7.1l4-4.1l6-10.1
			l-1-14.2l-5-12.2l-1-2l-5-14.2l-3-13.2l5-14.2l4-5.1l9-8.1l3-1"/>
		<path class="st0" d="M1075-315.5l-5,1l-6,13.2l-3,8.1l-10,2l-10,2l10,15.2l-1,14.2h11l9,8.1l3,6.1l3,14.2l4,14.2l10-2l9-5.1l10-3
			l8-4.1l1-4.1l1-10.1l-1-4.1l-2-10.1l2-10.1l3-4.1l7-3l5,3l5,4.1l9-3l10-12.2l5-2l4-10.1l5,10.1l5,3l10,3l9-3l5-3l5-4.1l9-5.1l10,2
			l10,1l9,1l6,5.1l4,13.2l10,2l6,12.2l3,7.1l10-2l3-5.1l6-7.1l5-7.1l5-4.1l10-4.1l2,8.1l6,14.2l1,2l5,12.2l2,14.2l3,7.1l9-4.1l4-3
			l6-4.1h10l4,4.1l5,5.1l10,1l10,8.1l9,10.1l10,4.1h5l4,1l10,3l10,4.1l9,5.1l2,1l8,5.1l9-1l4-4.1l6-3l10-2l9,1l10,2l9-4.1l10-3l10-1
			l9,1l10,4.1l8,5.1l2,1l9,4.1h10l9-3l10,4.1l10,7.1l2,1l7,6.1l10,4.1l8,4.1l11,3l10,5.1l9-3l10-4.1l3-1l7-1l9,1l10,1l5-1h4l10-1
			l4,1l6,1l9,1l10,3l9,5.1l10,2l10,2l9,8.1l10,6.1l9,4.1l10,7.1l7,3l3,9.1l1,5.1l2,14.2v14.2l-3,14.2l-10,14.2l-10,5.1l-9,7.1l-2,2
			l-8,9.1l-6,5.1l-1,14.2l4,14.2l3,8.1l3,6.1l-3,2l-9,4.1l-10,2l-10,4.1l-1,2l-8,14.2l9,10.1l4,4.1l6,5.1l5,9.1l5,8.1l3,6.1l6,10.1
			l4,4.1v14.2l-4,4.1l-7,10.1l-2,8.1l-1,6.1l-3,14.2l-2,14.2l-4,12.2l-8,15.2l-2,3l-7,11.2l-2,3l-10,8.1l-4,3l4,11.2l2,3l6,14.2
			l-8,4.1l-9,9.1l-3,15.2l-7,8.1l-10-1l-9,2l-10,5.1l0,0"/>
		<path class="st0" d="M734-301.3l9,4.1l7,10.1l3,7.1l6,6.1l4,14.2l3-14.2l5-13.2l1-3l5-11.2l5-5.1l10-4.1l3-5.1"/>
		<path class="st0" d="M864-315.5l-5,11.2l-1,3l-2,14.2l-7,11.2l-2,2l-7,6.1l-10,8.1l-10,11.2l-3,3l-6,7.1l-7,7.1l-3,8.1l-3,6.1
			l-2,14.2l-2,14.2l7,6.1l7-6.1l3-3l9-9.1l6-2l4-1l10-4.1l9-5.1l9-4.1l10-4.1l10-3l10-2l5-5.1l4-3l4,3l6,6.1l3,8.1l6,14.2l10,6.1
			l5-6.1l5-6.1l8-8.1l1-2l7-12.2l-4-14.2l-3-6.1l-3-8.1l-6-14.2l-3-13.2l3-8.1l4-6.1l5-5.1l10-6.1l10,1l9-2l2-2"/>
		<path class="st0" d="M1049-315.5l-8,8.1l-7,6.1l-2,4.1l-2,10.1l2,2l9,10.1v3l-9,10.1l-4,2l-1,14.2l5,10.1l9-3l10-5.1l9,12.2
			l-2,14.2l3,5.1l9,6.1l10-1l10-4.1l9-3l10-1h9l3-2l7-10.1l2-4.1l2-14.2l6-6.1l9-1l10-3l9-1l10,3h10l9-1l10-4.1l9,1l4-2l6-4.1l10-1
			l7,5.1l2,2l9,12.2l11,4.1l9,2h10l6-6.1l3-5.1l10,2l2,3l8,8.1l3,6.1l1,14.2l5,9.1l10,1l9-8.1l5-2l5-2l2,2l8,9.1l9,2l5,3l5,4.1l10,2
			l9,5.1l10,2l9-3l10,3l2,1l8,4.1l9,5.1l7,5.1l3,3l9,3l8-6.1l2-1l10-7.1l9-1l10,1l9-3l7-3l3-1l10-1l9,1l3,1l7,3l10,6.1l9,4.1h10l9-2
			l10,3l10,7.1l8,7.1l11,7.1l9,5.1l10,2l10,6.1l9-3l7-3l3-2l10-2l9-1l10-2l9-1l10-1l10,2l9,1l10,4.1l5,2l4,3l10,7.1l7,4.1l3,1l9,3
			l10,3l9,5.1l3,2l7,9.1l3,5.1v14.2l-1,14.2l-1,14.2l-11,6.1l-9,5.1l-10,2l-3,1l-6,3l-10,9.1l-1,2l-1,14.2l2,8.1l2,6.1l-2,7.1
			l-2,7.1l-4,14.2l-4,1l-9,10.1l-2,3l-8,10.1l-6,4.1l6,4.1l10,8.1l1,2l8,7.1l7,7.1l3,7.1l3,7.1l7,13.2l2,15.2l-2,2l-6,12.2l-3,14.2
			l-1,2l-6,12.2l-2,14.2l-2,4.1l-2,9.1l-7,14.2l-8,14.2l-2,2l-9,6.1l-7,6.1l5,14.2l-2,14.2l-6,9.1l-5,5.1l-5,4.1l-9,4.1l-10,2
			l-8,4.1l-1,2l-4,12.2"/>
		<path class="st0" d="M734-290.2l9,3l5,13.2l2,14.2l3,7.1l6,7.1l4,4.1l8-4.1l1-14.2l4-14.2l2-13.2l4-8.1l10-5.1l2-1l7-10.1l6-4.1"
			/>
		<path class="st0" d="M855-315.5l-6,12.2v5.1l1,11.2l-10,13.2l-10,7.1l-8,7.1l-2,2l-9,10.1l-2,2l-8,9.1l-4,5.1l-5,11.2l-2,3
			l-2,14.2v14.2l-2,14.2l-3,14.2l-1,7.1v7.1l10-8.1l2-6.1l7-12.2l1-2l9-9.1l7-5.1l2-3l10-2l10-3l7-6.1l2-1l10-2l9-4.1l10-2h10l6-5.1
			l3-1l2,1l8,8.1l3,6.1l6,14.2l10,2l1-2l9-9.1l4-5.1l5-6.1l10-7.1l10-15.2l-8-14.2l-2-2l-5-12.2l-5-8.1l-2-6.1l-4-13.2l6-10.1l6-4.1
			l4-3l10,1h9l10-10.1l5-2"/>
		<path class="st0" d="M1033-315.5l-11,10.1l-2,4.1l1,14.2l1,3l9,10.1l-9,5.1l-9,8.1l-2,1l2,3l5,11.2l-5,9.1l-4,5.1l4,8.1l8,6.1h6
			l5-1l9-1l1,2l9,11.2l2,3l8,6.1h9l10-1l8-5.1l11-5.1h10l9,3l10,1l6-13.2l4-7.1l9-3l10,3l9-3l4-4.1l6-4.1l10-1l9,2l10-1l9-3l10-6.1
			l10,3l9,10.1l10-2l10,1l5,1l4,1l10,5.1l9,1l10,4.1l2,3l8,9.1l3,5.1l6,12.2l10-4.1l9-6.1l10,2l10,8.1l3,2l6,3h10l10,1l9,5.1l10,4.1
			l9-3l10,1l10,2l2,1l7,4.1l10,10.1l9,5.1l10-5.1l10-11.2l6-3l3-1l10,1l9-2l10-4.1l10-2l9,1l10,4.1l5,3l5,3l9,3l10,1l9-2l10,3l8,6.1
			l2,2l9,7.1l7,5.1l3,3l9,5.1l10,4.1l4,2l6,3l7-3l2-1l10-6.1l10-3l9-2l9-2l10-2l10-1l10,1l8,2l11,6.1l9,7.1l2,1l8,6.1l10,2l9,4.1
			l10,2l9,10.1l4,4.1l1,14.2l-2,14.2l-3,5.1l-9,7.1l-10,1h-9l-4,1l-6,8.1l-1,6.1l-8,14.2l-1,2l-2,12.2l-1,14.2l-3,14.2l-3,5.1
			l-8,9.1l-2,3l-3,11.2l-6,5.1l-10,7.1l-2,2l2,4.1l10,8.1l2,2l7,6.1l10,4.1l5,4.1l4,6.1l4,8.1l3,14.2l2,14.2l-3,14.2l-2,14.2l-4,5.1
			l-4,9.1l-3,14.2l-2,5.1l-3,8.1l-6,14.2l-10,11.2l-4,3l-6,6.1l-8,8.1l5,14.2l-2,14.2l-5,6.1l-9,4.1l-10,1l-9,3l-10,6.1l-4,8.1
			l-3,14.2"/>
		<path class="st0" d="M734-262.8l1,3v14.2l8,13.2l2,1l-2,5.1l-1,9.1l-8,14.2l9,8.1l10-2l10-4.1l9,1l4,11.2v14.2l-3,14.2l-1,2
			l-1,12.2l-3,14.2l-5,12.2l-1,2l-6,14.2l-3,6.1l-3,8.1v14.2l3,1l2-1l8-8.1l2-6.1l7-8.1l4-6.1l6-7.1l6-7.1l4-8.1l1-6.1l5-14.2l3-8.1
			l3-6.1l7-9.1l4-5.1l5-4.1l10-1l10,2l9-3l10-5.1l8-3l11-3l10-1h9l6,4.1l4,6.1l3,8.1l3,14.2l3,14.2l10-12.2l8-16.2l2-2l7-12.2l2-2
			l10-7.1l10-3l5-2l4-4.1l10,2l4,2l5,1l10,2l10,5.1h9l10,3l3,3l6,8.1l10,1l10-1l9-2h10l10-4.1l1-2l8-4.1l10,1l3,3l6,14.2l10,11.2
			l7-11.2l3-5.1l5-9.1l4-6.1l10-5.1l9-1h10l10-1l9-1l10-5.1l9-3h10l10,2l9-1l10-3l10,1l9,6.1l5,3l5,7.1l8,7.1l11,12.2l2,2l8,5.1l9-1
			l9-4.1l10-3l8,3l2,2l10,12.2l9-1l10-3l10,3l6,1l3,1l10,1l9,2l10,6.1l10-7.1l9,4.1l7,7.1l3,2l9,4.1h10l10-4.1l2-2l7-7.1l10-4.1l8-3
			l11-4.1l10-2h9l10,3l5,3l5,4.1l9,4.1l10,2l9,1l6,3l4,2l10,7.1l6,5.1l3,3l10,8.1l7,3l2,1l10,3l10-1l7-3l2-1l10-5.1l10-4.1l9-3l10-3
			l9-2l10-1l10,2l8,3l8,14.2l3,3l9,5.1l10,1l10,1l7,4.1l2,8.1l2,6.1l-2,2l-9,3h-10l-10,5.1l-2,4.1l-1,14.2l-3,14.2l-3,5.1l-6,9.1
			l-3,14.2l-1,3l-3,11.2l-6,9.1l-6,5.1l-4,4.1l-10,4.1l-5,6.1l-4,9.1l-2,5.1l-6,14.2l8,14.2l9,9.1l10,4.1l10,13.2l1,2l8,7.1l5,7.1
			l3,14.2l1,14.2l-1,14.2l-6,14.2l-2,2l-5,12.2l-4,11.2l-2,2l-8,9.1l-6,5.1l-4,3l-9,7.1l-10,4.1l-4,14.2l-5,14.2l-10,3l-10,8.1l-5,3
			l-4,5.1l-3,9.1l-2,14.2l-4,14.2"/>
		<path class="st0" d="M787-259.7l1-14.2l4-7.1l8-6.1l11-11.2l3-3l6-5.1l10,2l2,3l3,14.2l-5,4.1l-10,8.1l-9,9.1l-6,6.1l-4,5.1l-9,3
			L787-259.7"/>
		<path class="st0" d="M957-273.9l8-12.2h9l3-1l7-5.1l9-7.1l10,6.1l2,6.1l-2,2L993-275v15.2l6,14.2l-6,6.1l-9-2l-5-4.1l-5-3l-8-11.2
			l-1-2L957-273.9"/>
		<path class="st0" d="M734-70.2h9l10,2l10,1l3-8.1l6-13.2l10-14.2l10-10.1l3-5.1l3-14.2l3-11.2l1-3l7-14.2l2-2l9-10.1l10-1l10,2h9
			l5-3l5-3l9-4.1l10-2l10-1h9l8,10.1l2,13.2l4,15.2l5,14.2l10,5.1l10-2l1-3l-1-3l-6-11.2l4-14.2l2-3l5-11.2l4-7.1l8-7.1l2-1l10-4.1
			l9-2h10l9,2l10,3l5,2l5,2l9,1l10,9.1l2,2l7,3l10-1l7-2h3l9-1l10,1l10-4.1l9-5.1l10,7.1l1,2l7,14.2l1,5.1l10,2l5-7.1l5-6.1l5-8.1
			l4-7.1l10-6.1l9,1l10,5.1l10,1l9-3l10-3l6-2l3-3l10-1l10-1l9-1l7,6.1l3,2l10,7.1l6,5.1l3,3l10,1l9,1l10,4.1l10,5.1l9-2l10-3l9-1
			l6,6.1l4,7.1l8,7.1l2,1l9-4.1l10-3l10,1h9l10,1l8,4.1l11,8.1l10-8.1l9,3l10,7.1l9,2l10,2l10-3l9-7.1l6-4.1l4-2l9-4.1l10-3l10-2
			l9-1l10,5.1l10,6.1l4,1l5,2l10,4.1l9,1l10,5.1l3,2l7,10.1l4,4.1l5,2l10,5.1l9,4.1h10l10-1l9-4.1l10-5.1l10-5.1l9-3l10-2l9-3l10-1
			l10,6.1l4,7.1l5,14.2l7,14.2l-2,14.2l4,14.2l-3,14.2l-6,9.1l-3,5.1l-4,14.2l-2,8.1l-4,6.1l-6,5.1l-10,4.1l-9,5.1l-8,14.2l-2,4.1
			l-4,10.1l-5,11.2l-3,3l3,14.2l9,4.1l8,10.1l2,2l9,5.1l9,7.1l1,2l10,12.2l8,14.2l1,14.2v7.1l1,7.1l-7,14.2l-3,6.1l-6,8.1l-4,5.1
			l-5,8.1l-5,5.1l-9,7.1l-4,2l-6,5.1l-9,7.1l-2,2l-6,14.2l-2,3l-10,8.1l-5,3l-4,3l-10,11.2l-1,14.2l-2,14.2l-4,14.2"/>
		<path class="st0" d="M734-186.8h9l4-2l6-2l10-1l4,3l4,14.2l-4,14.2l-1,14.2l-3,14.2l-9,14.2l-1,4.1l-3,10.1l-5,14.2l-2,3l-9,8.1"
			/>
		<path class="st0" d="M800-273.9h3l-2,2L800-273.9"/>
		<path class="st0" d="M816-287.1l4-5.1l3,5.1l-3,2L816-287.1"/>
		<path class="st0" d="M970-273.9l4-2l6,2l-6,6.1L970-273.9"/>
		<path class="st0" d="M734-55l3-6.1l6-4.1l10,3l10,5.1l9-3v-9.1v-6.1l7-14.2l3-4.1l10-10.1l9-12.2l1-2l1-14.2l4-14.2l4-7.1l5-7.1
			l4-4.1l10-3l10,2l9,1l10-4.1l9-6.1l10-2h10l9,1l6,15.2l3,14.2l1,6.1l3,8.1l4,14.2l2,2l5-2l5-1h10l5,1l4,3l1-3l-1-4.1l-2-10.1
			l-6-14.2l5-14.2l3-8.1l3-6.1l7-7.1l10-5.1l9-1h10l9,1l10,4.1l10,4.1l9,3l2,1l8,9.1h9l10-2l10-2h9l10,1l10-2l9-2l9,12.2l1,6.1
			l2,8.1l7,7.1l10-4.1l3-3l7-9.1l3-5.1l6-8.1l8-6.1l2-1l9,1l10,8.1l10,3l9-6.1l8-5.1l2-1l9-4.1l10-2h10l9,2l6,5.1l4,3l10,8.1l4,3
			l5,4.1l10-3h9l10,4.1l10,4.1l9-2l10-3l9,4.1l4,6.1l6,9.1l10,5.1l9-5.1l10-5.1l10-1h9l10,1l9,4.1l7,6.1l3,5.1h10l9-3l10,3l9,2l10,1
			l10-2l9-6.1l10-7.1l9-4.1l10-2l2-1l8-2h9l3,2l7,5.1l10,5.1l9,4.1l10,4.1h9l7,10.1l3,6.1l10,5.1l9,3l10,3l9,2l10-2l10-1l6-2l3-1
			l10-5.1l10-5.1l9-3l10-1l9-2l10,2l9,15.2l1,5.1l2,9.1l2,14.2l5,13.2v4.1l-1,11.2l-8,14.2l-5,14.2l-5,8.1l-10,5.1l-6,1l-3,1
			l-10,13.2l-8,14.2l-1,3l-8,11.2l-2,2l-10,6.1l-9,4.1l-4,2l4,9.1l2,5.1l7,14.2l10,1l6-1l4-1l9,11.2l3,4.1l7,3l9,3l5,8.1l5,8.1
			l5,6.1l5,12.2l1,16.2l-1,2l-10,11.2l-10,13.2l-6,15.2l-3,3l-10,6.1l-9,4.1l-3,1l-7,11.2l-2,3l-8,9.1l-9,5.1h-10l-10,7.1l-1,7.1
			l1,4.1l4,10.1l-2,14.2l-2,12.2l-4,16.2"/>
		<path class="st0" d="M734-179.7h9l10-3l10,2l2,6.1l-2,10.1l-2,4.1v14.2l-5,14.2l-3,4.1l-5,10.1l-3,14.2l-2,5.1l-5,9.1l-4,5.1"/>
		<path class="st0" d="M734-37.7l3-9.1l6-10.1l10,2l10,3h9l6-9.1v-14.2l4-7.1l5-7.1l5-5.1l9-6.1l4-3l3-14.2V-132l3-9.1l2-5.1l7-8.1
			l7-6.1l3-1l10,1l9,2h10l3-2l6-5.1l10-3h10l9,6.1l1,2l4,14.2l3,14.2v14.2l2,12.2l9,2l10-5.1l10,1l5,4.1l4,5.1l10,9.1l4-14.2
			l-4-10.1l-1-4.1l-5-14.2l-4-11.2l-1-3l1-3l5-11.2l5-12.2l1-2l9-5.1l9-2l10,1h9l10,5.1l3,1l7,4.1l9,6.1l5,4.1l5,5.1l9-3l4-2l6-2
			l10-1h9l10,1l10,1l4,1l5,10.1l1,4.1l6,14.2l3,6.1l9-2l7-4.1l3-1l10-11.2l2-2l7-10.1l4-4.1l6-4.1l9,4.1l10,9.1l8,5.1l2,1l9-9.1
			l5-6.1l5-3l9-5.1l10-4.1l10,2l9,5.1l9,5.1l11,9.1l6,5.1l3,2l10,1l7-3h6l6,1l10,2h9h10l9,8.1l2,3l8,9.1l10,2l9-5.1l8-6.1l2-1l10-2
			l9-1h10l7,4.1l2,2l9,12.2l1,2h10l9-2l10,2h9h10l10-1l3-1l6-3l10-7.1l7-4.1l2-1l10-3l10-2l9,2l7,4.1l3,2l10,5.1l7,7.1l2,2l10,4.1
			l7,8.1l2,2l10,5.1l10,1l9,3l10,2l9-2l10-2l10-2l9-2l10-4.1l10-6.1l9-2l10-1h9l10,8.1l4,14.2v14.2l6,13.2l1,15.2l-1,2l-7,12.2
			l-3,8.1l-4,6.1l-6,4.1l-9,1l-10,8.1l-9,15.2l-8,14.2l-2,4.1l-10,8.1l-3,2l-6,3l-10,5.1l-10,5.1v15.2l10,3l10,10.1l9,13.2h10l5,2
			l5,3l9,9.1l10,1l9,11.2l2,4.1l4,14.2l-1,14.2l-5,4.1l-7,10.1l-2,14.2l-10,13.2l-9,3l-10,3l-6,8.1l-4,6.1l-9,8.1l-10,3l-10,3l-9,3
			l-6,5.1l3,14.2l3,6.1l5,8.1v14.2l-4,14.2l-1,6.1l-2,8.1"/>
		<path class="st0" d="M734-171.6h9l10,11.2v14.2l-6,14.2l-4,8.1l-2,6.1v14.2l-7,11.2"/>
		<path class="st0" d="M734-13.4l3-5.1l6-14.2l10-8.1l10,1l9,2l10-1l10-7.1v-4.1l-2-11.2l2-8.1l1-6.1l8-8.1l10-5.1l9-12.2l2-3
			l1-14.2V-132l7-9.1l4-5.1l6-2l9,1l7,1l3,1l9-5.1l10-3h10l5,7.1l4,14.2l-1,14.2v14.2l1,14.2l10,4.1l9-2h10l10,4.1l9,8.1l10,5.1
			l10,7.1l4,2l5,3l1-3l2-14.2l-3-14.2l-3-14.2l-5-14.2l-1-4.1l-5-10.1v-14.2l5-10.1l3-4.1l6-5.1l10-2l9,1l10,4.1l3,2l7,6.1l7,8.1
			l2,3l10,6.1l9-4.1l8-5.1l2-1l10-1l9-1l10,2l2,1l8,11.2l1,3v14.2l-1,14.2l2,14.2l7,3l9-3l5-14.2l5-5.1l10-6.1l3-3l7-5.1l9-7.1l4-2
			l6-2l8,2l11,6.1l10,6.1l9-3l10-7.1l5-2l4-3l10-2h10l9-1l10,3l8,3l2,1l9,11.2l3,2l7,7.1l5-7.1l4-4.1l10-5.1h10l9,3l10,6.1l9,8.1
			l9,6.1l11,2l4-2l5-2l10-7.1l8-5.1l2-1l9-2l9,3l8,14.2l2,2l10,5.1h10l9-2h10l9-1l10-2l10-2l9-3l10-3l9-2l10-2l10-1l9,1l10,5.1
			l4,5.1l6,11.2l6,3l3,2l10,4.1l9,3l10,1l10,1l9,3h3l7,1l3-1l6-2l10-3l10-3l9-2l8-4.1l2-1l10-3l9-1l10-1l7,6.1l1,14.2l1,14.2l2,14.2
			l-2,2l-8,12.2l-11,7.1l-7,7.1l-2,2l-10,12.2l-9,14.2l-10,12.2l-2,2l-8,6.1l-10,7.1l-9,7.1l-10,2l-9,1l-5,5.1l3,14.2l2,2l9,10.1
			l10,1l2,1l7,4.1l8,10.1l2,2l10,11.2l9,9.1l10,3l3,3l7,11.2l1,3l-1,3l-6,11.2l-4,5.1h-10l-9-2l-8-3l-2-1l-3,15.2l3,2l6,12.2
			l-1,13.2l-5,6.1l-10,5.1l-9,2l-7,1l-3,1l-9,7.1l-5,6.1l-5,8.1l-3,6.1l3,7.1l6,7.1l4,5.1l6,9.1l2,14.2l-7,14.2l-1,2h-10l-3-2
			l-7-5.1l-9-2l-10,7.1l-9,10.1l-10,4.1l0,0"/>
		<path class="st0" d="M734-150.3l2,4.1l-2,7.1"/>
		<path class="st0" d="M1372,306.9l-4-5.1l-9,5.1l0,0"/>
		<path class="st0" d="M734-6.3l7-12.2l2-5.1l9-9.1l11-1l4,1l5,3h10l4-3l6-3l8-11.2l-2-14.2l3-12.2l1-2l9-6.1l9-4.1l5-4.1l5-14.2
			l4-14.2V-132l6-6.1l9-1l10-1l9-3l7-3l3-1l10,1l4,14.2v14.2l-1,14.2v14.2l5,14.2h5l6-2l9-3l10-1l10,5.1l9,7.1l10,8.1l10,9.1l7,5.1
			l2,1l8-15.2v-14.2l-3-14.2l-3-14.2l-2-5.1l-3-9.1l-5-14.2l3-14.2l5-7.1l10-7.1l9,1l10,4.1l10,8.1l9,11.2l6,4.1l4,3l9-3l10-4.1
			l10-3l9-1l10,2l4,6.1l1,14.2v14.2l-2,14.2l7,11.2h9l10,2l7-13.2l2-6.1l9-8.1l11-9.1l6-5.1l3-2l10-3l9,2l6,3l4,3l10,8.1l9-1l7-10.1
			l3-2l9-5.1l10-2h10h9l10,3l10,6.1l9,10.1l4,4.1l6,6.1l8-6.1l1-2l10-10.1l5-2l5-1l2,1l7,4.1l10,7.1l5,3l4,3l10,7.1l10,2l9-5.1
			l10-5.1l2-2l8-5.1h9l4,5.1l6,5.1l9,5.1l9,4.1l11,3l6-3l3-1l10-2l9-1l10-1l10-3l9-3l10-3l9-1l10-2h10l9,2l2,1l8,14.2l10,11.2l6,3
			l3,1l10,3l9-1h10l10,1l9,3l10,3l9-4.1l10-4.1l6-2l4-1l9-2l10-4.1l10-3l9,2l10,8.1l-1,14.2v14.2l-9,10.1l-5,4.1l-4,4.1l-9,10.1
			l-11,14.2l-8,14.2l-1,2l-10,9.1l-2,3l-8,6.1l-9,8.1h-3l-7,1l-7-1h-3l-9,7.1l-9,7.1l7,14.2l2,2l8,12.2l2,2l9,6.1l10,1l6,5.1l3,4.1
			l8,10.1l2,8.1l2,6.1l-2,10.1l-1,4.1l-9,4.1l-8,10.1l-1,5.1l-2,9.1l2,3l9,11.2l-9,10.1l-5,3l-5,3l-9,6.1l-6,5.1l-4,5.1l-10,8.1
			l-9,15.2l3,14.2l-3,6.1l-7,8.1l-3,2l-9,8.1l-4,4.1l-6,6.1l-10,4.1l-9,4.1l-10,9.1l-10,5.1l0,0"/>
		<path class="st0" d="M1381,306.9l-3-3l-7-11.2l-3-4.1l-9,1l-2,3l-8,11.2l-10,2l-7,1"/>
		<path class="st0" d="M1501,306.9l-8-1h-9l-6,1"/>
		<path class="st0" d="M734,1.8l4-6.1l5-9.1l4-5.1l6-6.1l10-1l9,6.1l10,1l10-9.1l9-5.1l5-14.2l1-14.2l4-11.2l4-3l5-1l10-6.1l3-7.1
			l5-14.2l2-4.1l3-10.1l6-11.2l3-3l7-2l9-3l10-4.1l10,8.1v15.2v7.1l-2,7.1l1,14.2l1,6.1l2,8.1l7,8.1l10-3l9-4.1l10-1l10,6.1l9,7.1
			l2,1l8,7.1l6,7.1l1,14.2l3,3l8-3l8-14.2l3-6.1l3-8.1v-14.2l-3-14.2l-4-14.2l-3-14.2l-3-9.1l-1-5.1l1-4.1l6-10.1l4-3l9-2l10,3l3,2
			l7,6.1l6,8.1l3,4.1l10,6.1l9-2l10-3l10-3l9-1l10,13.2l-1,14.2l-2,14.2l1,14.2l2,3l10,4.1l9-3l10,1l9-1l3-4.1l4-14.2l3-4.1l10-8.1
			l2-2l7-6.1l10-3l9,1l10,6.1l2,2l8,10.1l9,3l6-13.2l4-5.1l9-8.1l4-1l6-1h10h9l2,1l8,3l10,7.1l3,4.1l6,14.2l10,1l6-1l3-1l10-9.1
			l6-4.1l4-2l5,2l4,2l10,7.1l9,5.1l10,6.1l10,2l9-6.1l5-2l5-3l10-4.1l9,2l9,5.1l10,5.1l10,7.1l10,2l9-6.1l10-3l9-2l10-1l6-2l4-1
			l9-4.1l10-3l9-1h10l10,3l7,6.1l2,5.1l4,9.1l6,3l10,3l9,3l10,2l9-1l10-1l10,1l9,4.1l10,4.1l9-3l4-1l6-2l10-2l9-3l10-4.1l10-3
			l7,14.2l-4,14.2l-3,3l-10,11.2l-10,5.1l-6,9.1l-2,14.2l-1,2l-7,12.2l-3,3l-10,10.1l-9,8.1l-10,1l-9-2l-10,1l-6,7.1l-4,3l-9,7.1
			l-3,4.1l3,12.2l1,2l8,6.1l6,8.1l4,3l10,10.1l9,5.1l10,3l6,7.1l-1,14.2l-5,8.1l-4,6.1l-6,7.1l-7,7.1l-2,9.1l-1,5.1l1,2l6,12.2
			l-6,4.1l-9,9.1l-11,7.1l-9,4.1l-10,3l-6,14.2l-1,14.2l-2,7.1l-3,7.1l-7,12.2l-2,2l-8,11.2l-3,3l-6,4.1l-10,4.1l-10,5.1l-2,1
			l-7,4.1h-10h-9l-10,2l-10,6.1l-2,2"/>
		<path class="st0" d="M1390,306.9l-2-1l-10-10.1l-2-3l-7-14.2l-1-2l-9,1l-9,15.2l-11,7.1l-9,2h-10l-6,5.1"/>
		<path class="st0" d="M1428,306.9l-2-1l-10,1l0,0"/>
		<path class="st0" d="M734,9.9l9-13.2l2-1l8-10.1l10,3l4,7.1l5,7.1l10-6.1l10-15.2l9-5.1l8-9.1l2-5.1l2-9.1l4-14.2l3-4.1l10-4.1
			l5-6.1l5-9.1l2-5.1l6-14.2l1-4.1l5-10.1l5-5.1l9-7.1l3-2l7-2l2,2l1,14.2v14.2l1,14.2l2,14.2l4,8.1l8,6.1l11-3l9-3l10-1l10,5.1l2,2
			l7,6.1l9,8.1v14.2l1,9.1l3,5.1l7,1l9-8.1l7-7.1l3-5.1l3-9.1l5-14.2v-14.2l-3-14.2l-4-14.2l-1-8.1l-1-6.1l-2-14.2l3-4.1l9-6.1l10,3
			l10,7.1l9,12.2l4,2l6,3l9-2l4-1l6-2l10-2l9,2l2,2l1,14.2v14.2l-1,14.2l8,12.2l4,2l6,2l3-2l6-3l10-1l9,2l10-12.2l8-14.2l2-1l9-8.1
			l10-5.1l9,1l10,7.1l4,6.1l6,6.1l9,7.1l8-13.2l2-5.1l5-9.1l4-4.1l10-3l10-2l9,1l10,5.1l4,3l6,12.2l9,11.2l10-1l9-1l10-3l10-3h9
			l10,6.1l9,4.1l6,3l4,1l10,2l5-3l4-3l10-5.1l10-2l9,2l10,4.1l7,4.1l2,1l10,8.1l10,3l9-9.1l6-3l4-1l9-3l10-3l10-3l9-3l2-1l8-2l9-1
			l10,3l10,11.2l1,3l8,8.1l10,3l9,3l10,3l10,1l9-2l10-1l10,2l9,5.1l10,4.1l9-2h10l8,4.1l-2,14.2l-3,14.2v14.2l-3,4.1l-5,10.1l-5,4.1
			l-9,9.1l-2,1l-8,2l-6-2l-3-1l-10-3l-10,3l-9,14.2l-2,1l-8,12.2v5.1l1,11.2l9,12.2l2,2l7,8.1l8,6.1l2,2l10,9.1l5,3l4,10.1l1,4.1
			l-10,7.1l-6,7.1l-4,3l-5,11.2l-5,11.2l-2,3l2,14.2l-9,9.1l-7,4.1l-3,2l-9,8.1l-5,4.1l-2,14.2l-2,14.2l-11,14.2l-7,14.2l-2,3
			l-10,8.1l-8,3l-2,1l-9,4.1l-10,3l-9,1l-10,2l-10,3l-9,6.1l-10,6.1l-9-2l-10-4.1h-10l-9,7.1h-10l-9-7.1l-6-6.1l-4-7.1l-4-7.1
			l-6-12.2l-9,3l-7,9.1l-3,6.1l-7,8.1l-3,2l-9,1l-6-3l-4-2l-9-4.1l-10,2l-3,4.1l3,14.2"/>
		<path class="st0" d="M734,83.9l3-3l3-14.2l-6-8.1"/>
		<path class="st0" d="M734,27.1l3-3l6-7.1l10-2l8,9.1l2,1l9,3l8-4.1l2-3l7-11.2l3-3l9-7.1l4-4.1l6-5.1l9-9.1l3-14.2l6-14.2l11-9.1
			l8-5.1l1-2l10-11.2l9-1l8,14.2l2,5.1l6,9.1l4,2l8-2l11-3l9-3h10l10,5.1l2,1l3,14.2l1,14.2l3,12.2l1,2l9,9.1l8-9.1l2-1l9-7.1l9-6.1
			l10-14.2l5-14.2l5-10.1l3-4.1l-1-14.2l-2-3l-5-11.2v-14.2l5-12.2l10,4.1l9,7.1l2,1l8,4.1l9-1l10-2l10,8.1l1,5.1l-1,9.1l-1,5.1
			l1,7.1l1,7.1l8,5.1l10,5.1l7,4.1l3,2h9l3-2l7-4.1l9,3l3,1l7,4.1l9-4.1l1-2l1-12.2l5-14.2l3-3l10-6.1l9,1l10,8.1l10,10.1l5,4.1
			l4,4.1l10-4.1l5-14.2l4-10.1l4-4.1l6-4.1l10-3l9,1l6,6.1l1,14.2l3,5.1l10,7.1l9-2l10-3l9,1l10,2l10-1l9,1l10,2l9,2l10,2l10,2l9-3
			l10-7.1l10-2l9,3l10,4.1l9,7.1l10,6.1l8,2l11-6.1l10-8.1l9-5.1l10-4.1l10-4.1l6-1h3h10l9,2l10,9.1l2,3l8,13.2l9-2l10,2l10,5.1l9,2
			l10-1l9-5.1l10,1l10,5.1l9,7.1l3,1l7,6.1l4,8.1v14.2l-4,7.1l-6,7.1l-4,2l-9-1l-3-1l-7-4.1l-10-2l-6,6.1l-3,5.1l-8,9.1l-2,1
			l-9,10.1l-2,3l-4,14.2l-2,14.2l8,8.1l4,6.1l5,14.2l5,14.2l5,9.1l2,5.1l-2,8.1l-3,6.1l-7,3l-9,9.1l-1,2l-5,14.2l-4,14.2l-10,12.2
			l-9,11.2l-6,4.1l-1,14.2l-3,14.2l-10,5.1l-9,5.1l-10,2l-5,2l-4,2l-10,7.1l-5,5.1l-5,6.1h-9h-10l-9,3l-10,5.1l-10,2l-9,7.1l-10,5.1
			l-9-11.2l-2-3l-6-14.2l-2-4.1l-6-10.1l-4-3l-8,3l-11,14.2l-10,12.2l-5,2l-4,1l-3-1l-7-4.1l-9-5.1l-10-1l-9,10.1l-1,2l-9,11.2l-2,1
			l1,14.2"/>
		<path class="st0" d="M734,117.4l1-8.1V95.1l8-12.2l5-2l-1-14.2l-4-5.1l-7-9.1l-2-14.2l9-11.2l10-1l10,5.1l9,3l10-2l5-8.1l5-6.1
			l9-8.1l10-10.1l4-4.1l5-6.1l8-8.1l2-10.1l1-4.1l9-13.2l9-7.1l10-8.1l9,2l5,12.2l5,8.1l10,2l9-3l10-3l9-3l10,2l7,11.2l3,12.2
			l4,16.2l5,14.2l10,8.1l7-8.1l3-4.1l5-10.1l4-3l10-5.1l5-6.1l4-6.1l5-8.1l5-12.2l1-2l8-14.2l1-5.1l1-9.1l-1-2l-8-12.2l8-10.1l9,4.1
			l10,4.1l9-1h10l2,3l-1,14.2l2,14.2l7,7.1l9,4.1l8,3l2,1l10,10.1h9l10-7.1l9,1l10,7.1h10l5-12.2l3-14.2l1-2l10-11.2h9l10,7.1l6,6.1
			l4,4.1l9,10.1l10-3l7-11.2l2-8.1l3-6.1l7-8.1l10-3l9,7.1l1,4.1l8,14.2l11,6.1l9-3l9-3h6h4l10,3h10h9l10,1l9,1l10,2l10,4.1l9-2
			l10-8.1l5-1l5-1l3,1l6,2l10,6.1l8,6.1l11,4.1l10,2l9-3l5-3l5-4.1l9-8.1l4-2l6-3l10-3l9-1l10,2l9,4.1l2,1l3,14.2l5,8.1h10l9-2l10,2
			l10,4.1h9h10l9-3l10,2l5,3l5,5.1l9,7.1l2,2l2,14.2l-4,4.1l-9,1l-10-3l-10-2l-9,8.1l-4,6.1l-6,7.1l-9,7.1l-10,14.2l-5,14.2l-5,8.1
			l-2,6.1l2,4.1l10,6.1l4,4.1l6,10.1l1,4.1l3,14.2l1,14.2l-5,12.2l-1,2l-9,11.2l-2,3l-7,14.2l-6,14.2l-4,6.1l-6,7.1l-4,3l-10,8.1
			l-4,3l-5,8.1l-3,6.1l-7,7.1l-9,7.1l-10,6.1l-10,5.1l-6,3l-3,2l-10,1l-9,1l-10,7.1l-6,3l-4,3l-9,5.1h-10l-9-7.1l-6-15.2l-4-4.1
			l-10-8.1l-9,6.1l-8,6.1l-2,4.1l-7,10.1l-3,3l-9,3l-10-5.1l-2-1l-7-3l-10-1l-7,4.1l-3,3l-5,11.2l-4,5.1l-10,7.1l-2,2l2,7.1l1,7.1"
			/>
		<path class="st0" d="M734,135.6l4-12.2l2-14.2V95.1l3-4.1l10-7.1l6-3l-5-14.2l-9-14.2l-2-9.1v-5.1l10-4.1l10,3l3,1l6,2h10l5-2
			l5-6.1l2-8.1l7-7.1l7-7.1l3-3l9-9.1l2-2l8-9.1l4-5.1l4-14.2l2-2l9-9.1l5-3l5-3l4,3l5,8.1l3,6.1l7,4.1h10l9-3l3-1l7-2l9-3l9,5.1
			l4,14.2l4,14.2l3,7.1l2,7.1l6,14.2l1,2l10,5.1l4-7.1l6-8.1l3-6.1l6-10.1l7-4.1l3-1l9-10.1l2-3l8-14.2l6-14.2l4-6.1l7-8.1l2-7.1
			l10-4.1l9,5.1l3,6.1l7,6.1l9,8.1l10,2l10,7.1l5,5.1l5,5.1l9-1l5-4.1l5-3h9l5,3l5,6.1h10l5-6.1l4-9.1l2-5.1l7-14.2l10-3l6,3l4,2
			l10,10.1l2,2l7,10.1l10-1l6-9.1l3-6.1l6-8.1l4-10.1l10-3l9,12.2l10,10.1l9,5.1l10-4.1l10-3l9,1l10,2h10l9-1l10,1h9l10,3l3,1l7,4.1
			l9-1l5-3l5-4.1l10-2l9,3l5,3l5,3l9,5.1l10,2l10,2l9-1l10-4.1l7-7.1l2-2l10-8.1l10-4.1l9,1l10,7.1l4,6.1l5,13.2l10,5.1l10-2h9l10,2
			l10,3h9l10,2l9,3l7,2l-7,1l-9,8.1l-3,5.1l-7,11.2l-1,3l-8,6.1l-8,8.1l-2,3l-7,11.2l-3,5.1l-2,9.1l-7,13.2v3l6,12.2l3,2l10,7.1
			l3,5.1l3,14.2l-3,14.2l-3,5.1l-9,9.1l-9,14.2l-1,4.1l-4,10.1l-6,11.2l-2,3l-8,6.1l-9,6.1l-3,1l-7,9.1l-1,5.1l-7,14.2l-1,2l-10,4.1
			l-10,4.1l-9,2l-10,1l-9,1l-10,11.2l-3,3l-7,4.1l-9,3l-10-2l-3-5.1l-6-7.1l-7-7.1l-3-2l-10-4.1l-9,6.1l-10,8.1l-6,6.1l-4,5.1
			l-9,5.1l-10-3l-9-3l-9-4.1l-11,6.1l-8,8.1l-1,3l-10,11.2l-9,5.1l-5,9.1l5,11.2l1,3"/>
		<path class="st0" d="M734,150.8l5-13.2l4-14.2l2-14.2l2-14.2l6-5.1l10-5.1l3-4.1l-2-14.2l-1-6.1l-6-8.1l6-3l9-1l10-2l10-3l4-5.1
			l5-14.2L811,14l4-4.1l5-5.1l8-9.1l2-3l10-10.1l9-14.2h10l9,9.1l10,1l10-1l9-3l10-2h9l6,9.1l4,14.2l5,14.2l5,11.2l1,3l8,12.2l4,2
			l6,3l3-3l7-13.2l8-15.2l1-2l10-8.1l6-4.1l3-4.1l7-10.1l3-5.1l4-9.1l6-12.2l2-2l7-9.1l10-2l9,5.1l6,6.1l4,3l10,4.1l9,1l8,6.1l2,4.1
			l10,10.1l9-3l10-7.1l9,2l8,8.1l2,2l10-2l9-10.1l3-4.1l5-14.2l2-4.1l9-5.1l10,4.1l5,5.1l5,6.1l6,8.1l3,4.1h10l4-4.1l5-8.1l5-6.1
			l5-8.1l10-4.1l9,6.1l7,6.1l3,3l10,3l9-3l10-3l9,1l10,1h10l9-1h10l9,1l10,3l10,6.1l9-1l10-6.1l10-2l9,4.1l10,6.1l7,2l2,1l10,2l10,1
			h9l10-2l3-2l6-6.1l8-8.1l2-2l10-2l8,4.1l1,2l7,12.2l3,2l9,6.1l10,3h10l9,1l10,2l10,5.1l4,9.1l-4,10.1l-3,4.1l-7,6.1l-6,8.1l-4,6.1
			l-5,8.1l-3,14.2l-1,2l-7,12.2l-3,14.2l10,7.1l9,6.1l7,15.2l-7,12.2l-1,2l-8,9.1l-4,5.1l-6,8.1l-3,6.1l-7,12.2l-1,2l-8,7.1l-9,7.1
			l-9,13.2l-1,5.1l-4,9.1l-6,6.1l-10,5.1l-9,1l-10,2l-9-1l-4,1l-6,3l-10,11.2l-9,6.1l-10-3l-2-3l-7-5.1l-10-7.1l-5-2l-5-1l-9,8.1
			l-10,7.1l-10,8.1l-9,4.1l-10,1l-9-2l-10-3l-10,2l-3,4.1l-6,8.1l-10,6.1l-9,7.1l-10,7.1l-8,14.2l7,14.2"/>
		<path class="st0" d="M734,181.2l7-1l2-2l4-12.2l2-14.2l2-14.2l2-8.1l1-6.1l1-14.2l8-9.1l9-4.1l2-1l4-14.2l2-14.2l2-3l10-6.1l9-3
			l3-2l4-14.2l3-8.1l2-6.1l7-7.1l8-7.1l2-3l10-8.1l5-3l4-3l10,1l9,1l10-2l10-3l9-2h10l7,8.1l2,9.1l2,5.1l6,14.2l2,5.1l5,9.1l5,4.1
			l9,7.1l5,3l5,3l10-1l1-2l4-14.2l4-9.1l2-5.1l8-14.2l9-8.1l9-6.1l1-2l7-12.2l3-8.1l3-6.1l6-7.1l10-2l9,7.1l3,2l7,4.1l10,2l9,5.1
			l2,3l7,14.2h5l6-1l9-3l10-2l5,6.1l4,4.1l10,1l9-5.1l10-8.1l5-6.1l5-8.1l5-6.1l4-6.1l10,3l2,3l8,8.1l5,6.1l4,6.1l10-1l7-5.1l2-3
			l10-10.1l10-7.1l9,4.1l3,2l7,4.1h10l9-2h10l9-2l10-1l10,1l9-1l10-1l9,1l4,1l6,3l10,6.1h9l10-4.1l10,1l9,4.1l10,3l4,1l5,2l10,1h10
			l9-1h10l9-2h10l10,2l9,3l10,2l9,4.1l10,3l10,4.1l5,10.1l-5,8.1l-3,6.1l-6,14.2l-1,5.1l-2,9.1l-8,11.2l-2,3l-7,10.1l-4,4.1l4,6.1
			l8,8.1l1,4.1l3,10.1l-3,3l-9,11.2l-10,12.2l-7,16.2l-2,2l-9,12.2l-8,14.2l-3,7.1l-4,6.1l-5,3h-10h-9l-10,6.1l-10,4.1l-4,1l-5,3
			l-10,1l-6-4.1l-3-2l-10-7.1l-10,2l-5,7.1l-4,4.1l-10,10.1l-10,4.1l-9,3l-10,4.1l-9,1l-10-3l-10-3l-4,8.1l-5,6.1l-10,7.1l-8,1
			l-11,9.1l-10,5.1l-9,2l-10,11.2l-2,15.2l2,9.1l3,5.1"/>
		<path class="st0" d="M734,189.3l9-3l10-5.1l1-15.2l1-14.2l2-14.2l2-14.2l2-14.2l2-2l9-6.1l10-6.1l2-14.2l5-14.2l3-2l9-4.1l10-6.1
			l3-2V38.3l5-14.2L830,14l5-4.1l5-4.1l9-2l10,2l9-1l10-4.1l10-4.1l4-1l5-1l5,1l5,2l4,12.2l5,13.2l7,15.2l3,4.1l10,7.1l4,3l5,4.1
			l10,5.1l10,1l7-10.1l2-7.1l2-7.1l6-14.2l2-3l5-11.2l4-3l10-7.1l4-4.1l6-10.1l2-4.1l7-13.2l7-1h3l9,6.1l10,4.1l10,2l2,2l6,14.2l1,3
			l10,3l10-2l9-2l10,1l9,10.1l10-1l10-6.1l8-6.1l11-13.2l9-10.1l10,1l8,8.1l2,3l9,11.2l10-3l9-6.1l6-5.1l4-4.1l10-7.1l9,4.1l10,4.1
			l10-1l9-2l10-1l9-1l10-1h10h9l10-2l9,1l10,5.1l9,5.1l10,2l6-2l4-2l6,2l4,1l9,3l10,3l9,2l10,1h10l9-1h10h9l10,3l10-2l9,2l6,2l4,2
			l9,4.1l10,5.1l4,3l-4,10.1l-1,4.1l-6,14.2l-2,14.2l-10,10.1l-4,4.1l-6,6.1l-9,8.1l8,14.2l1,14.2l-6,14.2l-3,9.1l-2,5.1l-8,12.2
			l-2,2l-8,7.1l-4,7.1l-5,10.1l-10,2l-9,1l-10,12.2l-2,2l-8,5.1l-9,2h-10l-9-5.1l-2-2l-8-5.1l-10-1l-9,2l-2,4.1l-6,14.2l-2,2
			l-10,6.1l-9,1l-9,5.1l-10,4.1l-10-3l-2-1l-8-4.1l-9,2l-2,2l-1,14.2l-7,5.1l-9,2l-10,3l-10,4.1l-9,7.1l-10,5.1l-2,2l-6,14.2
			l-2,10.1v4.1l-1,14.2"/>
		<path class="st0" d="M734,197.4l7-4.1l2-1l10-2l8-10.1l-2-14.2l1-14.2l2-14.2l1-7.1v-7.1l6-14.2l3-2l10-5.1l7-7.1l2-14.2l1-2
			l9-12.2l10-5.1l9-8.1l2-1l-2-11.2v-3l7-14.2l3-3l10-7.1h9l10,2l9-2l9-4.1l11-4.1l9-1l6,5.1l4,6.1l3,8.1l6,13.2l10,14.2l2,1l8,5.1
			l9,7.1l6,2l4,1l10,3l9-4.1l4-14.2l3-14.2l3-6.1l3-8.1l6-12.2l2-2l8-5.1l10-9.1l9-14.2l10-4.1l9,3l4,1l6,2l10,6.1l3,6.1l6,13.2
			l10-1l10-3l9-2l10,3l3,4.1l6,6.1l10-1l7-5.1l3-2l9-7.1l6-5.1l4-5.1l9-8.1h10l9,13.2l10,8.1l10-4.1l5-4.1l4-3l10-7.1l7-4.1l3-1l3,1
			l6,2l10,1l10-2l8-1l11-1l9-1l10-1h10l9-1l10-2l9,1l10,5.1l10,7.1l9,2l10-3l10,1l9,4.1l8,3l2,1l9,2h10l10-1l9-1l10,1l9,3l10,2l10-1
			l9,3l10,4.1l3,1l4,14.2l-6,14.2l-1,14.2l-10,7.1l-7,7.1l-2,2l-10,3l-6,9.1l6,12.2l2,2l4,14.2l-5,14.2l-8,14.2l-3,3l-8,11.2
			l-11,13.2l-9,4.1l-10,5.1l-4,6.1l-6,7.1l-9,4.1h-10l-9-6.1l-9-5.1l-11-5.1l-9-3l-8,8.1l-2,4.1l-6,9.1l-4,6.1l-9,5.1l-10-2l-8,5.1
			l-1,2l-10,1l-8-3h-5l-6,2l-10,11.2l-9,12.2l-5,3l-5,2l-10,4.1l-9,6.1l-4,2l-6,4.1l-10,10.1l-5,14.2l-2,14.2l-2,14.2"/>
		<path class="st0" d="M734,203.5l9-4.1l10-2l10-1l4-3l-1-13.2l-1-14.2l1-14.2l1-14.2l2-14.2l3-7.1l10-6.1l3-1l7-6.1l6-8.1l2-14.2
			l1-2l10-9.1l5-3l4-2l10-12.2l-3-14.2l3-6.1l7-8.1l3-2l9,1l10,1l9-2l10-2l10-3l9,3l3,4.1l7,10.1l2,4.1l4,14.2l3,3l10,5.1l10,5.1
			l9,7.1l10,3l10,2l9-1l9-10.1l1-11.2v-3l4-14.2l4-14.2l1-2l10-12.2l10-8.1l6-6.1l3-6.1l10-4.1l9,1l10,3l6,6.1l4,8.1l2,6.1l7,5.1
			l10-1l10-4.1l9-1l3,1l7,4.1l9,8.1l10-1l10-6.1l6-5.1l3-3l10-8.1l4-3l5-4.1l10,3l10,13.2l4,2l5,2l4-2l6-4.1l9-6.1l7-4.1l3-3l10-4.1
			l9,2h10l10-2l9-1l10-1l9-1l10-1l10-1l9-1l6-1l4-1l6,1l3,1l10,5.1l10,7.1l2,1l7,2l8-2l2-1l10,1l9,4.1l10,3l9,2h10l10-1h9l10,2
			l8,4.1l11,3l10,1l9,10.1l-2,14.2l-4,14.2l-3,2l-10,4.1l-10,2l-7,6.1l1,14.2l3,14.2l3,14.2l-4,14.2l-5,8.1l-4,6.1l-6,8.1l-3,6.1
			l-6,5.1l-10,4.1l-6,5.1l-4,4.1l-7,10.1l-2,1h-10l-3-1l-6-6.1l-10-7.1l-4-1l-6-2l-9-3l-9,5.1l-8,14.2l-3,3l-9,6.1l-10-3l-9,1
			l-9,6.1l-11,6.1l-9,2l-10,4.1l-6,2l-3,5.1l-4,9.1l-6,7.1l-10,6.1l-4,1l-5,3l-10,6.1l-4,5.1l-6,6.1l-5,8.1l-4,10.1l-2,4.1l-6,14.2
			l-2,9.1l-1,5.1"/>
		<path class="st0" d="M734,220.8l9-8.1l10-3h10l9,1l10-1l2-2l-2-6.1l-1-8.1l-5-13.2l1-14.2l3-14.2l-1-14.2l3-10.1l3-4.1l7-4.1h9
			l10-1l5-9.1l1-14.2l3-7.1l5-7.1l5-4.1l9-10.1l10-11.2l7-3l3-2l9-5.1l10-1l10,3l3,5.1l6,13.2l10,11.2l4,4.1l5,3l10,6.1l10,3h9l10-3
			h10h9l10-2l8-7.1l1-4.1l5-10.1l2-14.2l3-14.2l2-14.2l8-10.1l3-4.1l6-6.1l10-6.1l9,2l10,8.1l1,2l8,14.2l10,3l10-2l4-1l6-2h9l2,2
			l8,6.1l9,2l10-1l10-2l6-5.1l3-3l10-8.1l5-3l4-3l6,3l4,2l10,9.1l9,2l10-5.1l9-6.1l3-2l7-4.1l10-3l9-1h10l10-1l9-2l10-1l9-1l10-1
			l10-2h9l10-2l9,2l3,2l7,5.1l10,6.1l9,1h10l7,2l3,1l9,3l10,3l9,3h10l10,2l7,2l2,14.2l-9,11.2l-2,3l-2,14.2l2,14.2l-2,14.2l-6,10.1
			l-4,4.1l-1,14.2l-4,14.2l-10,6.1l-10,1h-9l-10-1l-10-3l-9-3h-5l-5-1l-10-2l-3,3l-6,11.2l-10,1l-3,2l-6,3l-10,11.2l-10,10.1l-4,4.1
			l-5,3l-10,4.1l-6,6.1l-3,2l-10,2l-6,10.1l-4,12.2l-2,2l-7,3l-10,3l-9,8.1l-10,13.2l-8,15.2l-2,3l-6,11.2l-3,5.1l-7,9.1l-3,12.2v2"
			/>
		<path class="st0" d="M734,229.9l7-8.1l2-2l10-3l10-1l9,1h10l10-7.1l1-2l-1-3l-5-11.2l-5-13.2v-3l2-11.2l6-14.2l-1-14.2l3-4.1h9
			l10-2l9-3l8-5.1v-14.2l2-7.1l2-7.1l7-14.2l10-11.2l5-3l5-3l9-6.1l10-1l8,10.1l2,2l7,12.2l2,2l10,7.1l6,5.1l3,2l10,6.1l10,2l9-1
			l10-6.1l10-3l9,1l10-1l9-4.1l9-10.1l5-14.2l2-14.2l1-14.2l2-14.2l10-14.2l10-6.1l9,3l4,3l6,10.1l2,4.1l8,8.1l9,1l10-2l10-2l9,2
			l9,7.1h3l7-1l10-2l10-1l9-6.1l5-4.1l5-4.1l9-5.1l10,4.1l6,5.1l4,3l9,2l9-5.1l10-7.1l10-5.1l5-2l5-2h9h10l10-1l9-2l10-2l9-1l10-1
			l10-1l9-1l10-1l9,4.1l10,7.1l2,1l8,4.1l9,1h10l10,3l9,3l8,3l2,1l9,7.1l9,6.1l-3,14.2l-2,14.2v14.2l-4,7.1l-4,7.1l-5,10.1l-2,4.1
			l-6,14.2l-2,1l-9,4.1h-10l-10-3l-7-2l-2-1l-10-1l-10,1l-9,7.1l-10,7.1l-9,6.1l-8,9.1l-2,2l-10,9.1l-2,3l-7,6.1l-10,4.1l-5,4.1
			l-4,4.1l-10,3l-10,3l-3,3l1,14.2l-7,9.1l-10,4.1l-2,1l-8,6.1l-7,8.1l-2,4.1l-10,7.1l-6,3l-2,14.2l-1,4.1l-4,10.1l-6,9.1l-3,5.1
			l-3,14.2"/>
		<path class="st0" d="M734,238l2-2l7-8.1l10-3l10-2h9l10,1l2-2l8-4.1l9-10.1l-6-14.2l-3-6.1l-4-7.1l4-11.2l1-3l8-10.1l10-4.1
			l9-11.2l10-3l9-14.2v-14.2l1-2l5-12.2l4-6.1l8-8.1l2-2l9-8.1l10,2l6,8.1l4,3l9,7.1l4,4.1l6,6.1l8,8.1l11,4.1l10,1h9l10-5.1l10-7.1
			h9l10-1l9-2l7-4.1l3-4.1l7-10.1l3-8.1l2-6.1l2-14.2l1-14.2l2-14.2l2-2l10-9.1l9,6.1l3,5.1l7,9.1l6,5.1l4,2l9-1l3-1l7-1l10-1l4,2
			l5,3l10,4.1l9-3l10-2h10l4-2l5-3l10-9.1l5-2l4-2l5,2l5,2l10,7.1l9,1l10-5.1l8-5.1l11-6.1l10-4.1h9h10l10-1l9-3l10-2l9-1l10-1l10-1
			h9h10l9,4.1l10,6.1l10,6.1l9,2h10l4,1l6,1l9,4.1l10,8.1l3,15.2l-3,8.1l-4,6.1l-4,14.2l-2,2l-4,12.2l-5,12.2l-10,2l-10-1l-9,1
			l-10,3l-10,2l-9,5.1l-7,4.1l-3,2l-9,4.1l-7,8.1l-3,3l-8,11.2l-2,1l-9,9.1l-8,4.1l-2,1l-9,5.1l-10,6.1l-2,2l-8,2l-9,11.2v14.2
			l-10,7.1l-10,5.1l-2,2l-7,8.1l-9,6.1l-10,5.1l-10,2l-6,7.1l6,11.2l1,3l-1,6.1l-1,8.1l-9,14.2l-4,14.2"/>
		<path class="st0" d="M734,247.1l9-9.1l2-2l8-4.1l10-2h9l10,1l10-5.1l4-4.1l5-5.1l10-9.1l-6-14.2l-4-6.1l-4-7.1l4-10.1l7-4.1l3-2
			l9-5.1l10-7.1l10-7.1l9-7.1v-4.1l-1-10.1v-14.2l1-3l8-11.2l2-2l9-7.1h10l10,7.1l3,2l6,5.1l8,9.1l2,1l9,7.1l10,2l10,3l9,1l10-5.1
			l10-8.1l2-1l7-2h10h9l10-6.1l5-6.1l5-7.1l4-7.1l5-12.2l2-2l2-14.2l3-14.2l3-5.1l9,2l2,3l8,6.1l10,6.1l9-4.1l10-2h10l9,7.1h10
			l9-4.1l10-1h10l9-5.1l4-3l6-5.1l9-4.1l10,4.1l7,5.1l3,2h9l3-2l7-4.1l9-6.1l10-4.1l10-3l9-1l10,1l10-1l9-4.1l10-2l9-2l10-1h10h9
			l10,1l9,5.1l10,5.1l4,2l6,4.1l9,4.1l10,1l10,2l6,3l-2,14.2l-4,7.1l-4,7.1l-5,14.2l-11,6.1l-9,7.1l-10,7.1l-10,5.1l-6,3l-3,1
			l-10,5.1l-9,3l-10,4.1l-9,15.2l-10,14.2l-10,5.1l-9,4.1l-10,2l-2,3l-8,6.1l-9,7.1l-6,14.2l-4,13.2l-10,7.1l-9,7.1l-2,1l-8,6.1
			l-9,3l-10-2l-10,3l-6,4.1l-2,14.2l8,11.2l2,3l-1,14.2l-1,2l-8,12.2l-1,4.1l-6,10.1"/>
		<path class="st0" d="M734,268.4l5-4.1l4-5.1l10-9.1l10-4.1l9-1l10,1l10-4.1l6-6.1l3-2l10-5.1l9-5.1l3-2l1-14.2l-4-10.1l-1-4.1
			l1-8.1l2-5.1l8-5.1l10-7.1l3-2l6-7.1l10-7.1l9-7.1l9-7.1l1-14.2l10-3l9,2l10,8.1l9,3l10,2h10l9-1l10-1l10-4.1l9-4.1l10-2l9-3l10-3
			l10-7.1l9-12.2l2-3l7-14.2l1-2l9-12.2l10-3l10,2l9-4.1l10-3l10,1l9,5.1h10l9-4.1l10-3l10,1l9-4.1l5-2l5-4.1l9-4.1l10,4.1l6,4.1
			l4,2l9,1l4-3l6-4.1l9-9.1l2-1l8-3l10-2h9l10,2l10-1l9-4.1l10-4.1l5-2l4-1l10-2h10l9,2l2,1l8,8.1l5,6.1l4,7.1l6,7.1l1,14.2l-7,12.2
			l-9,10.1l-8,6.1l-2,1l-9,1l-10,1l-10,2l-9,6.1l-2,3l-5,14.2l-3,4.1l-9,9.1l-4,1l-6,1l-10,3l-9,10.1l-10,2h-10l-6,12.2l5,14.2
			l-4,13.2l-4,4.1l-10,6.1l-9,3l-10-2l-10-1l-2,4.1l-7,14.2l-10,6.1l-9,2l-8,6.1l-2,7.1l-3,7.1l3,7.1l8,7.1l2,2l8,12.2l-8,11.2l-2,3
			l-8,13.2l-2,1"/>
		<path class="st0" d="M987,306.9l-3-2l-10-4.1l-9,2l-3,4.1"/>
		<path class="st0" d="M1056,306.9l-5-2l-8,2"/>
		<path class="st0" d="M734,278.5l9-8.1l6-6.1l4-4.1l10-4.1l9-2l10,1l10-4.1l9-8.1l10-6.1l9-5.1l10-7.1l3-3l-2-14.2l-1-4.1l-4-10.1
			l4-7.1l7-6.1l3-2l9-7.1l5-5.1l5-4.1l9-6.1l10-3l5-1l5-3l9-4.1h10h9h10l10-1l9-2l10-1l10-2l3-1l6-2l10-3l9-3l10-4.1l5-2l5-2l9-9.1
			l3-3l7-13.2l7-15.2l2-3l10-5.1h10l9-3l6-3l4-2l10,2l9,5.1l10,1l9-5.1l4-1l6-2l10-1l9-3l10-5.1l9-2l10,3l10,5.1l9,1l10-5.1l4-5.1
			l5-5.1l10-5.1l10-2l9,1l10,3l10-2l9-2l3-2l7-3l9-3l10-2l10,3l7,5.1l2,3l10,11.2l-1,14.2l-8,14.2l-10,4.1l-10,1l-10,1l-9,3l-4,5.1
			l-6,6.1l-5,8.1l-4,7.1l-9,7.1l-11,3l-9,3l-10,6.1l-10,1l-9,8.1l-7,7.1l-3,4.1l-8,10.1l6,14.2l-7,5.1l-10-4.1l-10,5.1l-5,7.1
			l-4,8.1l-4,6.1l-6,9.1l-9,4.1l-3,1l-7,5.1l-9,9.1l-1,2l-2,12.2v14.2l-7,13.2l-1,15.2l-6,14.2"/>
		<path class="st0" d="M1072,306.9l-2-3l-9-9.1l-10-1l-10,5.1l-9,4.1l-10-1l-9,2l-10,1l-10-3l-9-6.1l-6-3l-4-1l-9-2l-4,3l-6,8.1
			l-4,6.1"/>
		<path class="st0" d="M734,289.7l9-9.1l2-2l8-7.1l10-7.1l9-1h10l10-4.1l9-6.1l6-3l4-2l9-7.1l6-5.1l4-2l10-8.1l3-4.1l-3-8.1l-2-6.1
			l-3-14.2l5-4.1l9-6.1l7-3l3-3l9-11.2l10-3l10-1l9-2l10-1l9-1l10-2l10-4.1l9-3l10-1h10l9-1l10-3l9-4.1l5-2l5-2l10-5.1l9-6.1l2-1
			l8-9.1l2-5.1l7-14.2l10-12.2l8-2l2-1l9-1l10-3h10l9,3l10,2l9-6.1l10-4.1l10-1l9-3l10-4.1l9-2l10,3l6,3l4,2l9,1l10-1l3-2l6-7.1
			l10-7.1l10-1l4,1l5,2l10,1l10-1l9-2l10-4.1l9-2l10,3l3,3l-3,5.1l-8,9.1l-2,1l-9,3l-10,7.1l-1,3l-8,13.2l-10,12.2l-3,3l-7,3l-9-1
			l-10,2l-10,6.1l-8,4.1l-6,14.2l-5,4.1l-9,8.1l-4,2l-6,5.1l-9,9.1l-9,14.2l-8,13.2l-3,5.1l-9,9.1l-10,8.1l-10,6.1l-8,14.2l-1,4.1
			l-3,10.1l-7,13.2l-9,15.2l-10,4.1l-10,2l-9-2l-10,2l-10,5.1l-6,3l-3,1l-10,1h-9h-10l-4-2l-6-2l-9-4.1l-10-4.1l-9-4.1l-10,4.1
			l-6,10.1l-4,5.1l-6,9.1"/>
		<path class="st0" d="M734,299.8l8-7.1l11-10.1l4-4.1l6-5.1l9-3h10l10-3l6-3l3-2l10-2l9-6.1l3-4.1l7-6.1l10-6.1l2-2l7-8.1l3-6.1
			l-3-7.1l-2-7.1l1-14.2l11-5.1l9-6.1l4-2l6-5.1l10-3l9-1h10l9-1l10-3l2-1l8-5.1l9-4.1l10-1l10,2l9,1l10-2l9-4.1l3-1l7-4.1l10-7.1
			l4-3l5-3l10-7.1l5-4.1l4-10.1l2-4.1l8-14.2l10-6.1l9-2l10-2l10-1l9,1l10,2l9-4.1l4-2l6-4.1l10-2l9-2l10-3l9-1l10,3l10,4.1l9,2
			l10-1l9-4.1l9-6.1l1-2h10l9,2l10,14.2l-10,9.1l-9,5.1l-10,4.1l-10,5.1l-8,5.1l-11,10.1l-1,4.1l-6,14.2l-2,2l-10,5.1l-9,7.1
			l-10,11.2l-2,3l-6,14.2l-2,3l-9,10.1l-10,11.2l-3,3l-7,5.1l-9,9.1l-10,14.2l-9,14.2l-10,8.1l-6,6.1l-4,3l-9,3l-10,4.1l-10,4.1
			l-9,4.1l-10,2h-9h-10l-10-3l-5-3l-4-3l-10-4.1l-9-4.1l-5-3l-5-3l-6,3l-4,14.2l-9,11.2l-3,3l-4,14.2"/>
		<path class="st0" d="M749,306.9l4-4.1l10-10.1l9-5.1l10-2l10,1l9-1l10-3l9-1l10-1l5-2l5-4.1l7-10.1l2-3l10-8.1l4-3l5-7.1l3-7.1
			l-1-14.2v-14.2l8-5.1l10-6.1l3-3l6-2l10-2l9-1l10-1l10-4.1l6-3l3-2l10-4.1h10l9,1h10l9-4.1l10-2l10-2l3-1l6-6.1l10-6.1l4-2l5-5.1
			l10-8.1l2-1l4-14.2l4-8.1l8-6.1l11-4.1l10-3l9-1h10l9-3l5-3l5-3l10-3l9-1l10-2l9,3l7,6.1l1,14.2l-4,14.2l-4,4.1l-6,10.1l-3,3
			l-10,9.1l-1,2l-8,11.2l-2,3l-8,8.1l-7,6.1l-3,3l-9,10.1l-10,8.1l-6,6.1l-3,5.1l-7,9.1l-3,4.1l-8,10.1l-2,2l-9,7.1l-10,5.1l-10,4.1
			l-9,2l-10,3l-9-1l-10-2l-10-5.1l-2-1l-7-2l-10-6.1l-8-6.1l-11-1l-10-1l-7,2l-2,2l-10,6.1l-9,6.1l-1,2l-5,12.2l-4,9.1l-3,5.1
			l-1,14.2l2,14.2"/>
		<path class="st0" d="M761,306.9l2-1l9-6.1l10-3l10,1h9l10-3l7-2l12-1h10l9-5.1l10-5.1l4-3l5-14.2l10-3h10l2,3l-2,7.1l-3,7.1
			l-2,14.2l5,14.2"/>
		<path class="st0" d="M885,236l-3-14.2l6-6.1l6-8.1l3-2l10-5.1h9l10-1l10-3l5-3l4-1l10-6.1l10-4.1h9h10l8-2l11-3l10-2l9-5.1l8-4.1
			l2-1l9-7.1l10-5.1l2-1l8-8.1l8-6.1l1-4.1l6-10.1l4-3l10-5.1h9l10-1l9-5.1l10-4.1l10-7.1l9-1l10,3l2,9.1l-1,14.2l-11,14.2l-9,7.1
			l-5,7.1l-5,7.1l-6,7.1l-4,2l-9,7.1l-4,5.1l-6,4.1l-9,8.1l-2,1l-8,10.1l-4,4.1l-6,8.1l-5,6.1l-4,6.1l-10,6.1l-4,2l-6,4.1l-9,4.1
			l-10,3l-9-1l-10-3l-10-3l-8-4.1l-11-8.1l-9-4.1l-10-2h-10l-9-1l-3,1l-7,4.1l-10,6.1l-9,4.1l-10,10.1l-9-4.1L885,236"/>
		<path class="st0" d="M803,306.9l8-2l9-1h10l10,1h9l10-1l5,3"/>
		<path class="st0" d="M963,193.4l2-1l9-1l10-1l9-2l10-3l10-2l5-3l4-3l10-4.1l9-6.1l3-1l7-4.1l10-5.1l9-4.1l2-1l8-6.1l8-8.1l2-2
			l9-4.1h10l9-3l10,4.1l1,5.1l-11,10.1l-3,4.1l-6,3l-10,5.1l-3,6.1l-6,8.1l-4,6.1l-6,5.1l-9,8.1l-1,2l-9,9.1l-5,3l-5,6.1l-10,8.1
			l-9,8.1l-10,3l-9-1l-10-3l-10-7.1l-9-7.1l-10-4.1l-5-3l-4-7.1L963,193.4"/>
		<path class="st0" d="M999,207.6l1-14.2l3-1l10-1l9-3l10-4.1l3-4.1l6-3l10-2h10l3,5.1l-3,3l-9,10.1l-11,7.1l-9,3l-10,4.1l-9,5.1
			l-10-1L999,207.6"/>
	</g>
	<g id="contours_major__x28_contours_x29_" inkscape:label="contours major (contours)" inkscape:groupmode="layer">
		<path class="st1" d="M1919,306.9l-3,4.1l-9,10.1l-10-2l-3,2l3,14.2l10,14.2"/>
		<path class="st1" d="M1753,306.9l-10,14.2v14.2l-9,7.1l-10,1l-10,4.1v2"/>
		<path class="st1" d="M1658,306.9l-1,14.2l-10,7.1l-8,7.1l-2,2l-8,12.2"/>
		<path class="st1" d="M1461,349.5l-6-12.2l-2-2l-8-3l-9-2l-10-5.1l-10,1l-9,2l-10-2l-9-5.1l-10-4.1l-10-1l-9,5.1l-10-1v8.1l1,7.1
			l9,12.2l2,2"/>
		<path class="st1" d="M1616,306.9l-7,14.2l-10-7.1l-10-5.1l-9,1l-10,10.1l-2,1l-7,6.1l-10,2l-10,2l-9-3l-10,3l-10-1l-9-2l-10-4.1
			l-9,5.1l-1,6.1l-3,14.2"/>
		<path class="st1" d="M1292,306.9l6,14.2l3,9.1l1,5.1l2,14.2"/>
		<path class="st1" d="M1241,306.9l2,4.1l4,10.1l-2,14.2l4,14.2"/>
		<path class="st1" d="M1027,349.5l-5-3l-9,2l-2,1"/>
		<path class="st1" d="M1183,306.9l-2,14.2l-5,13.2v3l3,12.2"/>
		<path class="st1" d="M1140,306.9l-2,9.1l-3,5.1l-6,14.2l-11,2l-7-2l-12-2h-9l-10-1h-10l-9-5.1l-8-6.1l-2-1l-10-4.1l-9-1h-10l-9,3
			l-10,2l-10-2l-9-5.1l-10-3l-9,5.1l-4,6.1l-2,14.2l6,7.1l4,7.1"/>
		<path class="st1" d="M734,310l3-3"/>
		<path class="st1" d="M917,306.9l-1,4.1l-1,10.1l-4,14.2l-4,12.2l-1,2"/>
		<path class="st1" d="M760,349.5l3-2l9-7.1l10-5.1l10-2l9,1l10-1l9-1l10,2l2,1l8,6.1l3,8.1"/>
		<path class="st1" d="M1599-315.5l10,2l4-2"/>
		<path class="st1" d="M1654-315.5l3,1l9,2l10,1l10,10.1l9,12.2l1,2l9,8.1l7,5.1l2,2l10,4.1l10,8.1l9,9.1l5,5.1l5,7.1l5,7.1l4,14.2
			l10,3l10,2l9,2l10,1l9,1h10h10l9,1l10,4.1l10,9.1l2,5.1l7,5.1l10,6.1l7,3l2,1l10,3l10,4.1l8,6.1l11,6.1l7,8.1l2,5.1l5,9.1l-1,14.2
			l-2,14.2l-2,8.1l-1,6.1v14.2l1,14.2l5,14.2v14.2l-5,12.2l-9,13.2l-4,3l2,14.2l2,3l9,8.1l4,3l6,9.1l5,5.1l-2,14.2l7,9.1l2,5.1v14.2
			l7,10.1l4,4.1v14.2l-4,4.1l-9,3l-10,7.1v14.2l-2,14.2l-3,14.2l-5,14.2l-2,13.2l-7,11.2l-5,3v14.2l2,14.2l3,7.1l5,7.1l1,14.2
			l-6,14.2l-10,14.2l3,14.2"/>
		<path class="st1" d="M1963,207.6v-14.2l11-6.1l10-1l9,6.1l2,1l-2,7.1l-2,7.1l-7,5.1l-10,2l-10-5.1L1963,207.6"/>
		<path class="st1" d="M886-315.5l-6,14.2l-2,3l-4,11.2l-6,10.1l-1,3l-8,13.2l-10,13.2l-3,2l3,4.1l10-1l3-3l6-6.1l10-4.1l6-4.1
			l4-4.1l9-8.1l10,3l9,2l2-7.1l-1-13.2l2-14.2l7-14.2h1"/>
		<path class="st1" d="M1111-315.5l-2,7.1l-5,7.1l5,4.1h9l10-1l10-2l9-11.2l4-4.1"/>
		<path class="st1" d="M1289-315.5l2,14.2l10,1l2-1l8-8.1l9-4.1l9,12.2l9,14.2l11,13.2l10,5.1l9-1h10l10,2l9,4.1l7,4.1l3,3l9,4.1
			l10,6.1l2,1l8,7.1l8,7.1l1,2l10,10.1l5,2l4,2l10,1l10-1h9l10-1l9,3l10-3l10-1l9,1l10,2l10,6.1l7,5.1l2,2l10,2l9-1l10,1l10,2l9-2
			l10,5.1l9,5.1l10,7.1l10,4.1l9-5.1l10-3l10,3l9,3l10,4.1h9h10h10l9,1l10,3l9,7.1l10,2l10-1l9,3l10,7.1l9,5.1l3,2l7,5.1l10,4.1l9,1
			l10-1l10,1l8,4.1l1,2l10,11.2l3,1l6,5.1l8,9.1l-7,14.2l-1,2l-9,10.1l-2,2l-8,9.1l-9,2l-10,1l-2,2l-3,14.2l-5,11.2l-4,3l-5,3
			l-7,11.2l-2,14.2l-1,14.2l10,12.2l2,2l5,14.2l-5,14.2l-2,1l-10,2h-10h-9l-10-3l-5,14.2l5,8.1l5,6.1l5,7.1l6,7.1l3,3l8,11.2
			l-6,14.2l-2,6.1l-2,8.1l-1,14.2l-1,14.2l-5,8.1l-3,6.1l-4,13.2l-3,13.2l-9,15.2l7,14.2l2,6.1l2,8.1l-2,9.1l-2,5.1l-7,6.1l-10,5.1
			l-3,3l-7,7.1l-4,7.1l-5,14.2l0,0"/>
		<path class="st1" d="M734-279l6,5.1l2,14.2v14.2l1,3l10,6.1l5,5.1l-3,14.2l-2,14.2l10-10.1l4-4.1l5-5.1l10,5.1l-2,14.2l2,11.2v3v3
			l-1,11.2l-4,14.2l-1,14.2l-1,14.2l-3,6.1l-2,8.1l2,7.1l6-7.1l4-3l4-11.2l6-9.1l1-5.1l6-14.2l2-4.1l7-10.1l3-3l9-7.1l10-1l10-1l4-2
			l5-3l10-3l9-3l10-1l10-1l9-1l10,5.1l3,7.1l5,14.2l1,4.1l10-3l10-13.2l1-2l8-11.2l5-3l5-3l10-10.1l9-9.1l5-6.1l-5-4.1l-7-10.1l-2-3
			l-8-11.2l-2-3l-6-11.2l-3-13.2l9-9.1l10,1l9,1l9-7.1l10-8.1l10-1l8,9.1l2,5.1l1,9.1l-1,5.1l-6,8.1l-4,6.1l-2,8.1l2,4.1l6,10.1
			l-6,10.1l-4,4.1l-6,12.2l-1,2l1,2l10,4.1l10,6.1l9,2h10l9,8.1l7,6.1l3,2h10l6-2l3-1h10l10-6.1l9-5.1l10,1l9,6.1l5,5.1l5,9.1l5-9.1
			l5-12.2l1-2l8-6.1l10-1l9-4.1l7-3l3-2l10,2l9,1l3-1l7-2l9-4.1l10-3l10,5.1h9l10-3l10,1l9,3l5,3l5,5.1l9,2l10,4.1l3,3l5,14.2l2,3
			l9,6.1l10-5.1l8-4.1h3l8,4.1l10,9.1l3,1l6,1l7-1h3h5l5,1l9,4.1l10,2l9,1l10,2l10-2l9,4.1l2,2l8,8.1l9,6.1l10-2l10-10.1l1-2l8-5.1
			h10l9-3l10-3l10-3h9l10,4.1l10,7.1l9,3l10,2l7-2h4l8,4.1l10,8.1l3,2l6,5.1l10,9.1l9,4.1l10,5.1l10,1l9-4.1l10-5.1l3-1l7-3l9-3
			l10-2l9-2l10-1l10,1l9,4.1l10,6.1l9,13.2l7,1l3,1h10l9,5.1l10,6.1l2,2l4,14.2l-6,14.2l-10,4.1h-9l-10,1l-5,9.1l-3,14.2l-2,2
			l-7,12.2l-2,7.1l-2,7.1l-3,14.2l-5,12.2l-1,2l-8,11.2l-4,3l-3,14.2l-3,2l-10,6.1l-3,6.1l3,9.1l2,5.1l8,5.1l10,4.1l4,5.1l5,7.1
			l10,5.1l1,2l4,14.2l2,14.2v14.2l-2,14.2l-5,11.2l-1,3l-7,14.2l-2,5.1l-2,8.1l-7,14.2l-10,8.1l-10,5.1l-9,12.2l-3,3l3,7.1l3,7.1
			l-3,9.1l-10,5.1l-9,1l-10-1l-10,11.2l-2,3l-3,14.2l-3,14.2"/>
		<path class="st1" d="M838-315.5l2,4.1v10.1l3,14.2l-3,4.1l-10,9.1l-10,8.1l-6,6.1l-3,4.1l-9,10.1l-10,10.1l-8,4.1l-2,14.2l-2-14.2
			v-14.2l-1-14.2l3-10.1l1-4.1l4-13.2l5-4.1l9-7.1l3-3l7-7.1l9-7.1h2"/>
		<path class="st1" d="M734-23.5l4-9.1l5-14.2l10-1l3,1l7,1l9,1l8-2l2-3l2-11.2l1-14.2l7-9.1l5-5.1l4-2l10-7.1l3-5.1l1-14.2l-1-14.2
			l6-10.1l3-4.1l7-6.1l10-2l9,2h10l9-5.1l10-2h10l9,12.2l4,15.2v14.2l1,14.2l5,10.1l9-1l10-3l10,6.1l2,2l7,3l10,7.1l6,4.1l4,2l2-2
			l2-14.2l-3-14.2l-1-4.1l-5-10.1l-5-12.2l-1-2l-1-14.2l2-5.1l4-9.1l6-10.1l6-4.1l3-1l10,1l9,1l10,4.1l10,7.1l2,2l7,7.1l9,7.1
			l10-4.1l10-5.1l10-1h9l10,1l10,5.1l2,4.1l5,14.2v14.2l1,14.2l1,2l1-2l9-7.1l9-7.1l10-6.1l9-8.1l10-11.2l6-3l4-3l6,3l3,2l10,7.1
			l10,5.1l9-3l10-8.1l9-3l10-4.1l10-1h9l10,3l3,2l7,5.1l9,8.1l3,1l7,5.1l5-5.1l4-3l10-1l10,1l9,3l10,3l9,9.1l3,2l7,6.1l10,1l9-4.1
			l4-3l6-5.1l10-4.1l9-2l10,2l9,8.1l10,14.2l10-2l9-1l10,1l9-1l10-1l10-1l9-4.1l10-3l3-1l6-3l10-3l10-3l9,3l10,4.1l3,2l7,8.1l9,6.1
			l10,5.1l9,7.1l5,2l5,2l10,1l9,3l10,1l9-3l10-2l5-2l5-1l9-2l10-4.1l10-5.1l8-2l11-1l4,1l5,2l6,12.2v14.2l4,14.2l2,14.2l-2,5.1
			l-5,9.1l-5,6.1l-9,4.1l-5,4.1l-5,3l-9,11.2l-9,14.2l-1,2l-9,12.2l-10,8.1l-10,6.1l-10,6.1l-9,7.1l-5,1l-2,14.2l7,4.1l9,4.1l10,5.1
			l9,15.2l10,8.1l10,3l3,3l7,6.1l9,5.1l8,3l2,4.1l1,10.1l-1,14.2l-10,12.2l-1,2l-4,14.2l-4,2l-6-2l-4-2l-10-1l-1,3v13.2l-7,14.2
			l-1,2l-10,4.1l-10,3l-9,2l-10,2l-2,1l-7,14.2l9,13.2l6,15.2l2,14.2l-4,14.2l-4,11.2l-2,3"/>
		<path class="st1" d="M734-163.4l7,3l2,11.2l1,3l-5,14.2l-4,14.2l1,14.2l-2,4.1"/>
		<path class="st1" d="M734,18l7-8.1l2-4.1l10-5.1l7,9.1l3,3l9,8.1l9-11.2l11-13.2l9-9.1l10-6.1l5-14.2l4-14.2L830-60l2-1l8-6.1
			l5-8.1l4-8.1l4-6.1l6-7.1l9-1l8,8.1l2,6.1l1,8.1l5,14.2l4,5.1l9,2l10-3l9-3l10-1l10,5.1l9,8.1l3,15.2l1,14.2l6,11.2l10-4.1l9-7.1
			l10-9.1l3-5.1l6-14.2l6-14.2l-1-14.2l-5-13.2l-2-15.2l-1-14.2l3-9.1l10-2l10,6.1l3,5.1l6,6.1l10,5.1l9-2l10-3h10l5,8.1l2,14.2
			l-2,14.2l4,11.2l2,3l8,4.1l10,5.1l9-3l10-4.1l9,4.1l10,2l4-8.1l3-14.2l3-4.1l9-8.1l3-2l7-4.1h9l5,4.1l5,4.1l8,10.1l2,2l9,7.1
			l9-9.1l1-2l5-12.2l4-7.1l10-7.1l10-2l9,1l3,1l7,8.1l3,6.1l2,14.2l5,4.1l9-1l10-2h9l10,1l10-2l9,1l10,2l9,3l10,3l10,2l9-5.1l10-6.1
			l10-1l4,1l5,2l10,3l9,6.1l5,3l5,4.1l10,2l8-6.1l11-8.1l9-4.1l6-2l4-2l10-3l9-2l10-2h9l10,6.1l3,3l6,14.2l1,2l9,2l10,1l10,5.1l9,3
			l10-2l9-3h10l10,3l5,3l4,3l10,5.1l9,5.1l4,15.2v14.2l-4,6.1l-4,8.1l-5,5.1l-10,4.1l-9-2l-10-4.1l-10-1l-8,12.2l-1,2l-10,7.1
			l-4,5.1l-3,14.2l-1,14.2l8,11.2l2,3l7,14.2l1,2l9,10.1l2,2l2,14.2l-4,9.1l-1,5.1l-8,12.2l-4,2l-6,8.1l-2,6.1l-1,14.2l-6,8.1
			l-5,5.1l-5,4.1l-7,10.1l-3,8.1l-2,6.1l-4,14.2l-3,5.1l-9,9.1l-1,2l-10,11.2l-2,1l-7,3l-10,5.1l-9,1l-7,5.1l-3,1l-10,4.1l-9,1
			l-10,6.1l-3,2l-6,2l-7-2l-3-1l-10-2l-3,3l-6,5.1l-10,2l-9-7.1l-8-14.2l-2-4.1l-5-10.1l-5-8.1l-9,5.1l-3,3l-7,10.1l-3,4.1l-7,8.1
			l-9,2l-10-6.1l-7-4.1l-2-1h-10l-10,12.2l-2,3l2,12.2l1,2"/>
		<path class="st1" d="M734,169.1l3-3l5-14.2l1-6.1l2-8.1l4-14.2l1-14.2l3-11.2l5-3l5-2l9-12.2V66.7v-3l10-10.1l6-1l4-1l9-11.2l1-2
			l5-14.2l4-4.1l9-9.1l2-1l8-10.1l5-4.1l5-5.1l9-8.1l10,1l9,3l10-1l10-2l7-2l2-1l10-2l6,3l3,3l4,11.2l5,14.2l1,4.1l4,10.1l6,9.1
			l3,5.1l6,5.1l10,6.1l10-10.1l6-15.2l3-6.1l5-8.1l5-5.1l9-7.1l3-2l7-11.2l2-3l6-14.2l2-4.1l8-10.1l11-3l4,3l5,4.1l10,7.1l10,2l4,1
			l5,1l9,13.2l1,2l10,4.1l9-2l8-4.1l2-1l2,1l7,6.1l10,6.1l10-5.1l8-7.1l9-14.2l2-5.1l8-9.1h4l7,3l9,11.2l10,12.2h10l9-10.1l3-2
			l7-10.1l6-4.1l4-2l5,2l4,2l10,9.1l10,1l9-2l10-2h9l10-1l10,1l9-1h10h9l10,4.1l5,3l5,3h9l6-3l4-2l10-1l7,3l2,1l10,5.1l9,2l10,2
			l10,1l9-1l10-1l9-5.1l5-4.1l5-4.1l8,4.1l2,2l9,6.1l10,4.1l3,2l6,2l10,3l10,1l9,3l10,4.1l-5,15.2l-5,7.1l-4,7.1l-5,9.1l-2,5.1
			l-4,14.2l-4,8.1l-4,6.1l-6,14.2l10,10.1l5,4.1l5,12.2l1,2l-10,14.2l-11,10.1l-3,4.1l-6,14.2l-10,9.1l-3,5.1l-6,6.1l-6,8.1l-3,13.2
			l-1,3l-10,10.1l-6,1l-3,1l-10,1h-9l-10,3l-10,6.1l-8,3l-1,2l-10-1l-9-4.1l-10-7.1h-10l-9,9.1l-2,1l-8,7.1l-10,5.1l-4,2l-5,4.1
			l-10,1h-9l-10-3h-10l-9,12.2l-10,6.1l-9,5.1l-3,3l-7,6.1l-10,4.1l-8,4.1l-1,3l-2,11.2l2,4.1l7,10.1"/>
		<path class="st1" d="M734,210.6l4-3l5-2l10-2h10l9-3l3-7.1l-3-9.1l-1-4.1V166l1-12.2l1-2v-14.2l3-14.2l6-6.1l10-5.1l9-1l3-2
			l2-14.2l5-14.2l9-7.1l10-6.1l9-15.2l1-14.2l9-3h10l9-2l10-2h10l8,7.1l1,2l5,12.2l5,6.1l9,8.1l10,6.1l10,6.1l4,2l5,1l10,1l10,1h9
			l10-3l6-14.2l1-14.2l2-8.1l2-6.1l3-14.2l5-6.1l6-8.1l4-3l9-9.1l3-2l7-5.1l9,2l7,3l3,2l6,12.2l4,6.1l9,5.1l10-2l10-3l9-1l10,7.1
			l2,2l7,3h10l7-3l3-2l9-8.1l5-4.1l5-4.1l9-6.1l10,4.1l5,6.1l5,5.1l9,2l10-5.1l4-2l5-4.1l10-6.1l10-3h9l10-1h5l5-1l9-1l10-1l9-1
			l10-2l10-1l9-1l10-1l9,1l10,6.1l3,2l7,5.1l9,2l10-1l10,1l9,4.1l9,3l10,2h10l10-1l9,1l10,5.1l9,7.1l10,8.1l2,6.1l-2,3l-10,5.1
			l-9,5.1l-10,11.2l-1,4.1l1,14.2l3,14.2l-3,14.2v14.2l-9,14.2l-10,10.1l-5,4.1l-5,2l-9,5.1l-10,3l-9-2l-10-4.1l-10-3l-9-1h-10
			l-10,11.2l-1,3l-8,8.1l-10-6.1l-9,2l-10,8.1l-1,2l-9,9.1l-9,4.1l-10,4.1l-9,5.1l-9,5.1l-1,4.1l-1,10.1l-9,6.1l-9,4.1l-10,4.1
			l-10,11.2l-2,3l-7,12.2l-1,2l-8,14.2l-1,2l-9,12.2l-3,14.2"/>
		<path class="st1" d="M734,258.3l7-8.1l2-2l10-8.1l10-3l9-1l10,2l3-2l7-2l9-8.1l8-4.1l2-1l7-13.2l-5-14.2l-2-13.2l9-9.1l10-4.1l2-1
			l8-10.1l4-4.1l5-4.1l10-8.1l3-2l-3-12.2l-1-2l1-7.1l1-7.1l8-9.1l10-1l10,6.1l7,4.1l2,1l10,9.1l6,4.1l3,2l10,2l10,2l9-1l10-2l7-3
			l3-2l9-5.1l10-1l9-2l10-3l10-11.2l3-4.1l6-11.2l2-3l8-13.2l9-15.2l10,2l10,4.1l9-5.1l8-1l2-1l2,1l8,1l9,5.1h10l9-5.1l6-1l4-1l6,1
			h4l9-4.1l10-8.1l6-2l3-2l4,2l6,2l10,7.1l9,1l10-8.1l2-2l7-5.1l10-4.1l10-2h9l10,1l10-2l4-2l5-2l10-3l9-1l10-2h10l9,1l10,3l7,4.1
			l2,2l10,6.1l10,5.1l9,9.1l5,6.1l-5,9.1l-5,5.1l-4,4.1l-5,10.1l-5,5.1l-9,9.1l-10,6.1l-10,4.1l-9,2l-8,2l-12,7.1l-4,7.1l-5,9.1
			l-3,5.1l-7,8.1l-9,4.1h-10l-2,2l-8,6.1l-5,8.1l-4,3l-10,6.1l-2,5.1l-1,13.2l-7,11.2l-3,3l-6,4.1l-10,5.1l-9,4.1l-10-3l-10,4.1
			l-9,8.1l-10,5.1l-3,1l-5,14.2l8,4.1l10,8.1l1,2l1,14.2l-2,3l-9,11.2l-1,2l-7,12.2"/>
		<path class="st1" d="M737,306.9l6-5.1l9-9.1l11-9.1l6-5.1l3-1l10-1h10l9-3l10-2l9-2l10-3l1-2l7-14.2l2-1l9-6.1l7-7.1l3-8.1l1-6.1
			l-1-10.1l-1-4.1l9-14.2l11-4.1l10-6.1l9-2h10l9-1l10-3l10-6.1l8-5.1l11-2l4,2l6,1l9,2l10-1l6-2l3-3l10-4.1l10-4.1l4-3l5-4.1
			l10-8.1l3-2l6-4.1l6-10.1l4-11.2l2-3l8-10.1l9-3l4-1l6-2l10-1h9h10l9-2l10-6.1l10-3l9-1l10-3l9,1l10,3l10,8.1l9,6.1l-6,14.2
			l-3,10.1l-2,4.1l-8,8.1l-5,6.1l-5,3l-9,10.1l-10,14.2l-8,15.2l-11,8.1l-4,5.1l-6,6.1l-9,8.1l-10,13.2l-9,10.1l-5,5.1l-5,6.1
			l-10,8.1l-9,7.1l-10,6.1l-4,1l-6,2l-9,3l-10,2l-9,1l-10-1l-8-7.1l-11-4.1l-10-3l-9-5.1l-3-2l-7-4.1h-10l-8,4.1l-1,2l-10,12.2
			l1,14.2l-1,2l-6,12.2l-3,14.2"/>
	</g>
</g>
</svg>
